<?xml version="1.0" encoding="UTF-8"?>
<svg id="Capa_1" data-name="Capa 1" xmlns="http://www.w3.org/2000/svg" viewBox="0 0 389 382">
  <defs>
    <style>
      .cls-1 {
        fill: #5754c9;
        stroke-width: 0px;
      }
    </style>
  </defs>
  <path class="cls-1" d="m333,192.7c-1.14,57.46-40.51,106.27-96.42,118.32-7.32,1.58-14.9,2.21-22.4,2.66-8.94.54-14.29-3.94-14.5-11.28-.21-7.47,4.57-12.13,13.71-12.3,14.59-.27,28.3-3.7,41.33-10.11,35.99-17.72,58.07-57.55,53.65-96.72-4.75-42.14-33.8-75.77-73.77-85.41-55.43-13.37-109.3,21.73-119.79,78.17-.96,5.16-1.11,10.49-1.41,15.75-.44,7.71-4.8,12.42-11.74,12.38-6.91-.04-11.38-4.93-11.5-12.58-.81-49.08,33.51-97.26,80.64-113.2,68.75-23.26,139.94,15.1,157.85,85.37,2.4,9.41,2.94,19.29,4.35,28.95Z"/>
  <path class="cls-1" d="m112.85,248.23c-15.65,0-31.3.07-46.96-.03-7.98-.05-12.87-4.22-13.3-10.92-.42-6.57,3.26-11.25,9.83-12.25,2.41-.37,4.88-.44,7.32-.44,28.85-.03,57.71-.03,86.56,0,2.63,0,5.29.1,7.88.52,5.57.91,9.03,4.87,9.38,10.38.36,5.71-2.33,10.07-7.67,11.74-2.29.71-4.8.96-7.21.97-15.27.08-30.55.04-45.82.04Z"/>
  <path class="cls-1" d="m270.39,147.5c-1.63,2.83-2.78,6.11-4.96,8.41-16.2,17.08-32.55,34.02-48.97,50.89-5.37,5.51-12.06,5.76-17.05,1.07-4.95-4.65-5.11-11.59.11-17.08,16.5-17.32,33.12-34.52,49.76-51.7,3.74-3.86,8.34-5.19,13.4-2.87,4.49,2.06,6.89,5.68,7.71,11.26Z"/>
  <path class="cls-1" d="m130.18,266c10.18,0,20.36-.12,30.53.04,8.28.13,13.2,5.08,12.87,12.47-.25,5.54-3.66,9.59-9.16,10.57-2.4.42-4.87.56-7.31.56-18.28.04-36.57.04-54.85,0-2.44,0-4.91-.13-7.31-.55-5.3-.93-9.06-5.28-9.37-10.51-.31-5.3,2.8-10.03,7.98-11.61,2.12-.65,4.43-.91,6.65-.93,9.99-.1,19.98-.04,29.97-.04Z"/>
  <path class="cls-1" d="m177.24,49.84c.06-5.57,3.12-9.8,8.58-11.16,14.31-3.59,28.68-3.65,43-.04,6.64,1.68,10.32,7.95,8.71,14.29-1.53,6.03-7.51,9.92-13.98,8.44-10.85-2.48-21.55-2.37-32.42,0-7.67,1.68-13.97-3.87-13.89-11.54Z"/>
  <path class="cls-1" d="m144.75,307.77c5.83,0,11.66-.14,17.48.04,6.83.21,11.32,4.86,11.38,11.42.06,6.6-4.36,11.53-11.12,11.66-11.84.21-23.68.21-35.51,0-6.47-.11-11.42-5.53-11.32-11.68.1-6.22,5.02-11.19,11.62-11.4,5.82-.18,11.65-.04,17.48-.04Z"/>
</svg>