<?xml version="1.0" encoding="UTF-8"?>
<svg id="Capa_1" data-name="Capa 1" xmlns="http://www.w3.org/2000/svg" viewBox="0 0 507 416">
  <defs>
    <style>
      .cls-1 {
        fill: #5754c9;
        stroke-width: 0px;
      }
    </style>
  </defs>
  <path class="cls-1" d="m446.72,135.58c-14.81-16.42-34.88-25.1-58.05-25.1-1.2,0-2.43.02-3.65.07-.12,0-.24,0-.36,0-2.84,0-4.12-1.32-6.57-4.55-2.36-3.12-4.73-6.35-7.02-9.48-7.51-10.27-15.28-20.89-24.6-29.77-24.2-23.06-55.51-35.75-88.17-35.75-20.77,0-41.59,5.26-60.21,15.21-.36.19-.74.39-1.13.58-2.23,1.13-4.76,2.41-6.1,4.79-1.45,2.58-2.9,7.61-.96,10.88,1.94,3.28,6.98,4.61,9.89,4.7h.21c2.42,0,4.51-1.27,6.36-2.4.58-.35,1.12-.69,1.63-.95,15.92-8.31,32.36-12.52,48.84-12.52,4.57,0,9.22.32,13.83.96,37.88,5.25,67.54,26.1,88.17,61.98,7.14,12.42,14.89,17.26,27.65,17.26.8,0,1.62-.02,2.47-.06.94-.04,1.87-.06,2.8-.06,18.87,0,34.17,8.76,45.46,26.04,18.2,27.85,16.92,65.44-3.09,91.41-10.62,13.78-23.99,21.05-39.74,21.61-3.11.11-6.5.16-10.67.16-2.34,0-4.69-.02-7.04-.03-2.36-.02-4.72-.03-7.08-.03-3.11,0-5.7.03-8.14.08h-.4c-2.97,0-3.78-.47-4.29-4.04-3.38-23.87-15.24-45.7-33.38-61.45-18.12-15.73-41.32-24.4-65.33-24.4h-.82c-49.42.41-91.5,37.38-97.88,86-.47,3.56-1.29,4.04-4.3,4.04h-.37c-3.52-.08-7.27-.11-11.81-.11-3.17,0-6.33.02-9.5.03-3.16.02-6.31.03-9.47.03-14.52,0-27.08-5.35-37.35-15.9-24.56-25.24-28.14-67.09-8.31-97.36,10.43-15.92,23.85-24.48,41.04-26.16,1.55-.15,3.25-.22,5.51-.22.93,0,1.87.01,2.8.02.96.01,1.91.02,2.86.02,2.49,0,5.44-.07,8.43-.56,4.49-.74,9.28-3.57,11.91-7.05,4.82-6.37,9.4-13.05,13.82-19.51,3.05-4.46,6.21-9.06,9.4-13.5,2.54-3.54,7.28-10.12.22-15.77-2.02-1.61-4.18-2.43-6.43-2.43-3.44,0-6.73,1.89-9.5,5.47-1.45,1.87-2.97,3.75-4.45,5.58-4.65,5.76-9.46,11.71-13.01,18.35-3.9,7.29-8.07,10-15.36,10-.58,0-1.18-.02-1.79-.05-1.19-.07-2.38-.1-3.55-.1-17.46,0-33.64,7.46-48.11,22.17-26.96,27.42-33.94,71.03-17.38,108.5,12.86,29.1,34.26,45.33,63.62,48.26,5.06.51,10.62.74,17.5.74,3.58,0,7.2-.06,10.71-.12,2.68-.04,5.36-.09,8.03-.11h.16c3.52,0,4.22.59,4.68,3.92,3.34,24.34,15.43,46.45,34.05,62.26,18.07,15.34,40.91,23.79,64.32,23.78,15.31,0,30.13-3.55,44.05-10.54,9.34-4.69,17.41-11.84,25.22-18.76,2.49-2.21,5.06-4.49,7.61-6.62,2.85-2.39,4.52-5.55,4.57-8.67.03-1.99-.57-4.93-3.61-7.67-2.05-1.84-4.25-2.77-6.54-2.77-4.11,0-7.27,2.97-9.29,5.21-2.51,2.78-4.98,5.49-7.58,7.97-14.52,13.82-33.67,21.43-53.94,21.43-14.28,0-28.45-3.85-40.97-11.13-29.65-17.24-45.13-53.77-36.79-86.86,8.79-34.89,39.3-60.05,74.19-61.19.94-.03,1.88-.05,2.81-.05,24.63,0,47.44,10.87,62.57,29.83,15.26,19.12,20.84,44.1,15.29,68.54-.99,4.35-3.04,13.39,6.53,15.94,1.1.29,2.17.44,3.15.44,7.13,0,9.02-7.05,10.16-11.27.43-1.6.73-3.34,1.03-5.02.55-3.14,1.24-7.05,2.67-8.08.85-.61,2.33-.91,4.52-.91,1.35,0,2.8.11,4.33.22,1.57.12,3.19.23,4.76.23.24,0,.49,0,.73,0,.62-.02,1.25-.02,1.87-.02.54,0,2.67.01,3.19.01,3.09.21,6.11.32,8.97.32,19.7,0,35.67-5.12,48.82-15.67,20.08-16.1,31.27-37.7,34.2-66.03,2.72-26.23-6.53-55.38-23.55-74.25Z"/>
  <path class="cls-1" d="m287.74,291.93c-2.98-4.06-6.59-6.66-11.32-3.07-4.79,3.63-2.74,7.88-.11,11.89,4.92,7.52,9.64,15.17,14.8,22.51,4.63,6.58,9.63,6.52,14.23-.13,5.25-7.59,10.17-15.41,15.15-23.19,2.52-3.95,3.33-8.18-.93-11.32-3.95-2.91-7.51-1.26-10.38,2.32-.57.71-1.38,1.22-2.62,2.27-.5-1.53-.79-1.99-.79-2.46-.07-8.98.57-18.04-.39-26.92-.7-6.48-2.29-13.47-5.62-18.93-6.06-9.96-18.34-13.39-29.66-10.04-11.14,3.3-18.93,13.32-19.27,25.79-.36,13.22.05,26.45-.23,39.68-.16,7.58-4.94,12.71-11.6,13.44-5.79.63-12.75-3.45-13.21-9.74-.88-11.92-.25-23.95-.25-35.94,1.87.15,2.28,1.07,2.86,1.86,2.77,3.81,6.26,6.3,10.74,3.09,4.79-3.42,3.36-7.66.6-11.81-5.11-7.69-9.91-15.59-15.27-23.11-4.24-5.95-9.09-5.92-13.24-.01-5.45,7.76-10.53,15.77-15.59,23.79-2.44,3.86-3.52,8.14,1.01,11.25,4.1,2.81,7.53.96,10.28-2.69.52-.69,1.43-1.07,2.19-1.61.53.8,1.01,1.18,1.02,1.58.12,8.73-.51,17.54.5,26.16.82,6.97,2.28,14.5,5.81,20.38,5.98,9.98,18.44,13.26,29.71,9.8,11.05-3.39,18.71-13.54,19-26.02.3-13.22-.08-26.46.23-39.68.18-7.46,5.27-12.62,11.92-13.1,6.05-.44,12.76,4.21,13.18,10.87.72,11.53.2,23.13.2,35.8-1.59-1.45-2.4-1.98-2.93-2.71Z"/>
  <path class="cls-1" d="m193,107c2,0,4.95-.38,6.61-1.39,8.16-5,15.8-10.87,23.49-16.6,1.34-.99,2.43-2.31,3.31-3.4.84-1.05,1.24-2.4,1-3.72-.96-5.31-5.77-8.02-10.37-5.25-9.65,5.8-18.8,12.6-27.41,19.86-1.14.97-1.83,2.92-1.62,5.49.2,2.45,2.55,5,5,5Z"/>
</svg>