<?xml version="1.0" encoding="UTF-8"?>
<svg id="Capa_1" data-name="Capa 1" xmlns="http://www.w3.org/2000/svg" viewBox="0 0 433 464">
  <defs>
    <style>
      .cls-1 {
        fill: #5754c9;
        stroke-width: 0px;
      }
    </style>
  </defs>
  <path class="cls-1" d="m267.56,388.55c-1.45,8.69-2.32,9.45-10.9,9.45-72.17,0-144.33,0-216.5,0-9.26,0-10.35-1.08-10.35-10.29,0-94.71,0-189.41,0-284.12,0-8.98,1.45-10.42,10.41-10.45q11.86-.04,11.99-12.11c.1-9.1,1.23-10.19,10.61-10.27q11.74-.09,11.77-11.79c.02-9.26,1.39-10.61,10.79-10.61,71.98,0,143.97,0,215.95,0,9.62,0,10.46.87,10.46,10.66,0,53.08.04,106.16-.07,159.24,0,4.3.63,6.47,5.57,7.83,39.01,10.69,63.93,46.07,62.02,87.3-1.75,37.72-31.63,71.13-70.01,77.75-6.92,1.19-14.15,1.37-21.16.93-6.8-.43-13.51-2.25-20.59-3.52Zm-12.85-282.72c-2.14-.17-3.22-.33-4.3-.33-67.79-.01-135.58.04-203.37-.12-5.47-.01-5.13,2.94-5.13,6.54.02,89.05.07,178.11-.11,267.16-.01,5.7,1.85,6.93,7.17,6.91,66.34-.16,132.67-.1,199.01-.12,2.1,0,4.2-.2,6.3-.31.29-.55.58-1.1.87-1.65-1.7-1.43-3.26-3.07-5.12-4.25-53.48-33.8-53.54-110.25.01-143.88,3.56-2.23,4.77-4.57,4.76-8.68-.15-38.35-.09-76.69-.09-115.04v-6.23Zm112.55,202.08c.21-40.45-31.88-72.71-72.41-72.81-40.27-.1-72.44,31.77-72.66,72.01-.23,40.61,31.65,72.9,72.12,73.07,40.6.17,72.75-31.68,72.95-72.27Zm-100.22-81.12q10.46-1.49,10.46-11.01c0-42.15,0-84.31,0-126.46,0-2.08,0-4.16,0-6.19H64.52v10.01c2.63,0,4.94,0,7.25,0,61.6,0,123.19,0,184.79,0,8.71,0,10.49,1.78,10.49,10.52,0,38.88,0,77.77,0,116.65,0,2.14,0,4.27,0,6.48Zm22.61-4.21q10.14.74,10.15-8.14c0-49.08-.07-98.16.1-147.24.02-5.18-1.43-6.84-6.74-6.83-66.71.16-133.43.16-200.14,0-5.3-.01-6.46,1.92-6.15,6.65.34,5.29,4.16,3.67,6.81,3.68,61.44.09,122.89.06,184.33.07,10.41,0,11.64,1.24,11.64,11.56,0,44.36,0,88.71,0,133.07v7.19Z"/>
  <path class="cls-1" d="m52.22,318.87c0-15.63-.05-31.25.02-46.88.04-8.32,1.62-9.82,9.96-9.83,25.62-.01,51.24-.02,76.86,0,7.78,0,9.72,1.78,9.73,9.58.07,31.44.07,62.87,0,94.31-.02,7.82-1.83,9.51-9.79,9.53-25.8.05-51.61.05-77.41,0-7.84-.02-9.32-1.5-9.36-9.28-.08-15.81-.02-31.62-.02-47.43Zm84.45,21.69c0-21.36-.05-42.02.04-62.69.02-4.14-2.78-3.53-5.22-3.53-20.69-.03-41.37.1-62.06-.11-4.54-.05-5.36,1.77-5.32,5.79.18,17.6.07,35.2.07,52.8,0,2.48,0,4.96,0,7.74h72.48Zm-71.95,12.93v9.69h71.6v-9.69h-71.6Z"/>
  <path class="cls-1" d="m100.22,251.77c-13.09,0-26.18.04-39.27-.02-6.63-.03-8.57-1.8-8.67-8.32-.14-9.82-.14-19.64,0-29.45.09-5.99,2.32-8.23,8.35-8.25,26.54-.09,53.09-.08,79.63,0,6.05.02,8.32,2.15,8.46,8.2.23,9.81.22,19.64.02,29.45-.13,6.5-2.23,8.35-8.71,8.37-13.27.05-26.54.01-39.82.01Zm-36.03-33.62c0,5.63.29,10.7-.08,15.72-.34,4.59,1.32,5.87,5.82,5.82,20.34-.21,40.68-.08,61.03-.11,1.75,0,3.5-.26,5.29-.4v-21.02h-72.06Z"/>
  <path class="cls-1" d="m209.92,262.16q1.71,12.16-9.46,12.16c-8.18,0-16.36-.15-24.52.14-1.6.06-4.48,1.85-4.49,2.87-.27,20.86-.2,41.72-.2,63.55,5.79,0,11.15,0,16.5,0,5.63,0,11.29.32,16.89-.09,5.02-.37,6.53,1.69,5.92,6.29-.23,1.76-.19,3.56-.3,5.96h-37.95c-.52,1.08-.91,1.55-.95,2.05q-.76,8.54,7.62,8.55c9.81.02,19.62.06,29.43.13.49,0,.98.35,1.51.55.19.55.46,1.04.51,1.55q.91,9.74-8.77,9.75c-11.26,0-22.53.07-33.79-.05-6.96-.08-8.35-1.52-8.35-8.4-.03-32.16-.03-64.31,0-96.47,0-6.75,1.69-8.48,8.29-8.51,13.95-.06,27.9-.02,42.13-.02Z"/>
  <path class="cls-1" d="m68.29,143.82q11.87,0,11.88-11.72c0-1.82,0-3.63,0-5.45.04-9.61,3.02-12.08,12.39-10.3,17.05,3.24,29.97,20.3,27.94,36.91-2.24,18.31-17.98,31.8-36.07,30.9-16.1-.79-30.71-14.77-31.89-30.51-.57-7.58,1.19-9.58,8.67-9.81,2.36-.07,4.72-.01,7.09-.02Zm24.21-14.22c0,5.29,0,10.52,0,15.74-.02,9.15-1.3,10.46-10.24,10.47-5.49,0-10.98,0-16.7,0,3.23,11.36,12.72,17.32,24.12,15.87,10.25-1.3,18.47-10.42,18.76-20.8.29-10.46-6.39-19.59-15.94-21.28Z"/>
  <path class="cls-1" d="m188.28,121.51c13.26,0,26.52.2,39.77-.11,4.74-.11,5.28,2.04,5.26,5.88-.02,3.86-.13,6.51-5.32,6.47-26.88-.21-53.75-.21-80.63,0-5.32.04-5.12-2.8-5.21-6.54-.09-3.91.61-5.91,5.28-5.81,13.61.3,27.24.11,40.86.11Z"/>
  <path class="cls-1" d="m142.5,155.81v-11.49h90.07c1.92,11.37,1.83,11.49-8.91,11.49-24.68,0-49.36,0-74.04,0-2.15,0-4.3,0-7.12,0Z"/>
  <path class="cls-1" d="m187.74,178.68c-13.43,0-26.88-.24-40.3.12-5.27.14-5.22-2.53-5.3-6.34-.09-4.09.54-6.25,5.51-6.21,26.69.22,53.38.25,80.06-.02,5.51-.05,5.46,2.68,5.63,6.7.19,4.52-1.29,5.94-5.84,5.85-13.25-.27-26.5-.1-39.76-.1Z"/>
  <path class="cls-1" d="m201.36,217.94c-8.52,0-17.05-.24-25.55.1-4.58.18-5.58-1.73-5.33-5.74.22-3.45-.59-6.8,4.98-6.71,17.58.27,35.17.26,52.74,0,5.45-.08,4.94,3.07,5.09,6.65.16,3.92-.63,5.99-5.29,5.81-8.87-.35-17.76-.1-26.64-.1Z"/>
  <path class="cls-1" d="m202.33,228.42c8.7,0,17.41.27,26.1-.1,5.22-.22,4.8,2.83,4.84,6.23.04,3.52.09,6.29-4.94,6.22-17.58-.24-35.17-.26-52.74,0-5.42.08-5-2.98-5.11-6.6-.12-3.83.47-6.05,5.22-5.86,8.87.36,17.76.1,26.64.1Z"/>
  <path class="cls-1" d="m345.37,307.22c-1.11-13.89-5.63-26.51-16.31-36.13-14.51-13.07-31.38-17.33-49.99-11.1-18.51,6.2-29.73,19.45-33.74,38.64-.41,1.95-.26,4.15-1.12,5.84-.78,1.52-2.49,3.38-3.98,3.56-7.29.88-8.22-.23-7.47-7.54,2.98-29.02,28.45-53.39,57.32-54.86,31.8-1.61,59.09,18.62,65.34,48.43.3,1.42.74,2.81.97,4.24,1.58,9.81-.71,11.72-11.02,8.92Z"/>
  <path class="cls-1" d="m265.2,351.5c-2.99-3.18-5.43-5.78-8.53-9.07,7.1-6.98,13.85-14.63,21.64-21,8.39-6.86,11.85-14.84,10.36-25.48-.6-4.27-.07-8.7-.08-13.06-.01-5.16,3.9-3.7,6.69-3.86,2.73-.16,5.59-.39,5.53,3.9-.13,9.81.08,19.62-.17,29.42-.05,1.97-1.07,4.36-2.45,5.78-10.73,11.07-21.67,21.96-33,33.37Z"/>
</svg>