<?xml version="1.0" encoding="UTF-8"?>
<svg id="Capa_1" data-name="Capa 1" xmlns="http://www.w3.org/2000/svg" viewBox="0 0 433 430">
  <defs>
    <style>
      .cls-1 {
        fill: #5754c9;
        stroke-width: 0px;
      }
    </style>
  </defs>
  <path class="cls-1" d="m86.36,208.43c4.8,0,9.19,0,13.59,0,3.15,0,6.3-.01,9.45.01,2.97.02,5.39.99,6.87,3.81,1.54,2.93.51,5.39-1.27,7.69-6.43,8.37-12.89,16.72-19.34,25.07-3.39,4.4-6.75,8.82-10.19,13.18-4.24,5.38-8.38,5.31-12.59-.23-9.29-12.24-18.53-24.52-27.79-36.79-.56-.74-1.13-1.48-1.59-2.28-2.73-4.71-.47-9.5,4.96-10.33,1.81-.28,3.7-.13,5.55-.13,6.26-.01,12.53,0,18.89,0,.97-7.03,1.67-13.61,2.82-20.11,4.49-25.34,15.22-47.81,31.63-67.57,17.33-20.87,38.97-35.64,64.43-44.75,9.57-3.43,19.47-5.55,29.6-6.95,10.73-1.48,21.48-1.63,32.14-.75,20.69,1.69,40.26,7.72,58.42,17.89,17.99,10.08,33.43,23.18,45.86,39.71,1.11,1.47,2.2,3,3.02,4.64,1.35,2.67.66,5.67-1.48,7.48-2.39,2.02-5.7,2.13-8.17.04-1.11-.94-1.93-2.23-2.82-3.41-18.25-24.16-42.02-40.44-70.99-48.86-16.47-4.79-33.33-6.02-50.53-4.31-26.18,2.61-49.48,12.11-69.92,28.38-23.63,18.81-39.31,43.02-46.64,72.39-1.83,7.32-2.66,14.89-3.9,22.35-.17,1.04-.02,2.13-.02,3.84Zm10.51,13.85c-8.38-1.14-30.27-.78-34.3.64,5.62,7.38,11.14,14.64,16.86,22.14,6.08-7.94,11.68-15.26,17.45-22.79Z"/>
  <path class="cls-1" d="m354.96,221.73c-6.22,0-11.73.02-17.24,0-2.41-.01-4.86.16-7.21-.21-6.21-.98-8.27-5.83-4.67-10.96,2.87-4.09,6.01-7.99,9.02-11.99,6.01-8,12-16.01,18.02-24,.78-1.04,1.78-1.92,2.46-3.01,2.76-4.48,8.74-4.66,11.93.23,1.81,2.78,4.1,5.26,6.14,7.9,7.36,9.53,14.7,19.07,22.04,28.61,2.16,2.81,4.57,5.65,2.67,9.52-1.87,3.8-5.49,3.92-9.09,3.91-6.85-.01-13.69,0-20.8,0-.57,3.71-1.24,7.11-1.59,10.55-2.86,28.68-13.99,53.94-32.1,76.09-19.54,23.89-44.33,39.98-74.09,48.51-20.29,5.81-40.91,7.17-61.57,3.94-38.98-6.1-70.82-24.9-95.19-56.09-1.25-1.6-2.45-3.27-3.4-5.06-1.49-2.81-.65-5.95,1.85-7.85,2.34-1.78,5.27-1.8,7.66.28,1.38,1.2,2.45,2.76,3.57,4.23,10.26,13.37,22.47,24.6,36.9,33.33,16.67,10.1,34.6,16.83,54.07,18.72,8.81.85,17.79,1.56,26.58.87,17.44-1.38,34.2-5.9,49.88-13.95,25.84-13.26,45.6-32.68,59.08-58.43,7.71-14.73,12.65-30.32,14.17-46.94.22-2.38.54-4.76.94-8.2Zm-11.1-13.75c11.72,1.12,30.59.72,34.46-.72-5.65-7.33-11.25-14.58-17.14-22.21-5.84,7.74-11.37,15.06-17.32,22.93Z"/>
  <path class="cls-1" d="m137.62,177.14c-4.1-3.75-7.71-7.16-11.44-10.43-7.46-6.54-7.75-7.88-2.95-16.37,2.55-4.51,5.14-9,7.8-13.45,2.58-4.32,4.83-5.22,9.76-3.79,4.44,1.29,8.81,2.82,13.23,4.17,1.72.52,3.5.85,5.63,1.36,1.39-6.03,2.77-11.56,3.93-17.13,1.35-6.52,3.05-8.28,9.56-8.51,5.74-.2,11.5-.22,17.24.01,6.23.25,7.96,2.07,9.25,8.22,1.17,5.58,2.55,11.12,3.99,17.33,1.9-.41,3.66-.68,5.34-1.18,4.43-1.33,8.8-2.84,13.24-4.15,5.29-1.57,7.46-.73,10.19,3.89,3.11,5.26,6.16,10.55,9.17,15.87,2.71,4.78,2.32,7.33-1.84,11.25-4.44,4.19-8.99,8.25-14.02,12.85,1.94,1.87,3.6,3.52,5.31,5.1,2.99,2.77,6.06,5.45,8.99,8.28,3.74,3.61,4.21,5.98,1.82,10.35-3.2,5.84-6.54,11.62-9.98,17.32-2.15,3.57-4.33,4.32-8.43,3.13-6.37-1.84-12.7-3.82-19.67-5.93-1.4,6.05-2.86,11.88-4.1,17.76-1.34,6.4-2.87,7.84-9.19,7.88-6.12.03-12.24.05-18.35,0-5.25-.05-7.22-1.75-8.35-6.95-1.18-5.41-2.36-10.82-3.57-16.23-.15-.68-.46-1.34-.8-2.33-6.53,1.93-12.85,3.86-19.21,5.68-4.63,1.32-6.31.77-8.79-3.3-3.47-5.69-6.82-11.46-10.01-17.31-2.25-4.12-1.78-6.55,1.72-9.89,4.55-4.35,9.22-8.56,14.56-13.51Zm85.37-30.58c-6.08,1.87-11.67,3.74-17.34,5.3-6.39,1.75-12.86-2.41-14.26-8.77-1.22-5.55-2.59-11.06-3.98-16.91-4.06.35-7.89-.63-11.71.68-1.33,5.61-2.78,10.95-3.81,16.37-.53,2.8-1.94,4.69-4.08,6.3-3.5,2.63-7.27,3.39-11.5,2.01-5.23-1.7-10.51-3.27-16.12-5-1.93,3.53-3.74,6.86-5.56,10.19,4.44,4.2,8.37,8.12,12.52,11.78,2.74,2.41,3.69,5.18,3.7,8.79.02,3.67-1.09,6.41-3.85,8.73-2.83,2.38-5.53,4.92-8.23,7.44-1.44,1.34-2.78,2.79-4.26,4.3,2.02,3.47,3.77,6.47,5.69,9.76,2.03-.53,3.8-.95,5.54-1.46,3.89-1.14,7.76-2.39,11.66-3.48,6.59-1.83,12.89,2.08,14.47,8.82,1.29,5.54,2.64,11.06,3.97,16.61h11.6c1.35-5.73,2.81-11.24,3.9-16.82.62-3.17,2.1-5.27,4.88-6.93,3.52-2.12,6.93-3.34,10.93-1.48,1.33.62,2.78.99,4.2,1.41,3.84,1.13,7.68,2.23,11.76,3.41,2.03-3.67,3.77-6.83,5.59-10.12-4.35-4.01-8.32-7.6-12.2-11.27-5.74-5.43-5.81-12.43-.21-17.83,3.98-3.84,8.02-7.61,12.42-11.77-1.94-3.41-3.8-6.7-5.72-10.06Z"/>
  <path class="cls-1" d="m253.38,235.19c.86-3.55,1.66-6.9,2.47-10.25.22-.93.35-1.88.66-2.78,1.03-3.07,2.34-4.17,5.53-4.24,4.93-.1,9.87-.1,14.81,0,3.53.06,5.24,1.46,6.09,4.84.74,2.92,1.29,5.89,2,8.82.29,1.19.78,2.34,1.27,3.78,4.06-1.19,7.83-2.33,11.61-3.39,4.5-1.26,5.96-.75,8.34,3.14,2.16,3.52,4.19,7.13,6.22,10.73,2.37,4.19,1.95,6.45-1.57,9.62-2.83,2.55-5.6,5.17-8.76,8.09,2.9,2.73,5.6,5.35,8.37,7.87,3.96,3.59,4.38,5.83,1.77,10.41-1.97,3.45-3.95,6.9-5.99,10.31-2.14,3.58-3.95,4.42-7.93,3.38-3.22-.84-6.36-2-9.54-3-.73-.23-1.5-.36-2.7-.64-.98,3.8-1.94,7.44-2.86,11.09-1.34,5.34-2.85,6.68-8.08,6.8-3.66.08-7.33.12-10.99-.02-5.48-.21-6.88-1.45-8.14-6.8-.83-3.53-1.63-7.07-2.56-11.12-3.14.91-5.97,1.73-8.8,2.56-1.52.45-3.02,1.04-4.57,1.33-2.75.51-5.03-.28-6.5-2.84-2.38-4.14-4.87-8.21-7.13-12.41-1.88-3.48-1.53-5.13,1.41-8.04,2.93-2.9,5.97-5.7,8.77-8.36-2.88-3.07-5.51-6.01-8.28-8.82-3.63-3.68-3.9-5.01-1.33-9.61,2.02-3.61,4.07-7.2,6.21-10.74,2.14-3.53,4.03-4.25,8-3.11,3.2.92,6.36,2.02,9.55,2.99.72.22,1.5.23,2.66.4Zm-16.82,13.32c3.07,2.82,5.88,5.37,8.65,7.96,4.14,3.87,4.43,9.52.64,13.68-1.11,1.21-2.48,2.18-3.68,3.32-1.87,1.78-3.7,3.61-5.54,5.41,1.22,2.15,2.17,3.84,3.24,5.73,3.74-1.13,7.18-2.17,10.63-3.2,6.71-2,11.76,1.02,13.22,7.82.72,3.36,1.61,6.69,2.47,10.23h6.46c.25-.49.56-.89.67-1.34.74-3.04,1.41-6.1,2.16-9.14,1.7-6.91,6.54-9.57,13.47-7.47,3.42,1.04,6.85,2.01,10.33,3.03,1.21-2.09,2.18-3.76,3.31-5.71-3.07-2.94-5.84-5.74-8.79-8.35-1.88-1.66-2.67-3.55-2.79-6.04-.16-3.39.72-6.05,3.39-8.31,2.86-2.41,5.43-5.16,8.27-7.91-1.4-2.22-2.5-3.97-3.51-5.58-3.67,1.06-6.85,1.96-10.01,2.89-7.57,2.23-12.21-.46-13.85-8-.72-3.34-1.54-6.65-2.27-9.77h-6.86c-.88,3.66-1.76,6.99-2.48,10.36-1.38,6.46-6.46,9.54-12.91,7.7-3.6-1.03-7.19-2.13-10.96-3.25-1.09,1.97-2.04,3.67-3.29,5.91Z"/>
  <path class="cls-1" d="m126.48,49.27c-24.09,0-48.18.02-72.26-.03-2.38,0-4.82-.19-7.14-.71-3.11-.71-4.49-2.52-4.7-5.38-.23-3.02,1.17-5.48,4.19-6.42,1.89-.59,3.99-.69,6-.69,17.6-.05,35.21-.03,52.81-.03,31.5,0,63,0,94.5.01,1.84,0,3.74-.06,5.52.32,3.31.71,5.34,3.29,5.28,6.24-.05,3.13-1.85,5.36-5.34,6.09-2.15.45-4.4.57-6.6.58-24.09.04-48.18.02-72.26.02Z"/>
  <path class="cls-1" d="m100.44,376.48c-15.92,0-31.85,0-47.77,0-1.48,0-2.98.1-4.44-.09-3.46-.47-5.76-3.04-5.86-6.32-.1-3.32,1.45-5.36,5.05-6.22,1.78-.42,3.65-.62,5.48-.62,31.66-.04,63.33-.04,94.99,0,1.83,0,3.7.22,5.47.65,2.98.72,4.93,3.15,5,5.83.07,2.58-1.9,5.47-4.67,6.24-1.74.48-3.65.51-5.48.52-15.92.04-31.85.02-47.77.02Z"/>
  <path class="cls-1" d="m80.55,62.4c10.35,0,20.7-.07,31.05.03,4.81.05,7.11,2.49,6.8,6.72-.22,3.02-2.41,5.4-5.63,5.91-1.27.2-2.58.1-3.87.1-19.04,0-38.07,0-57.11,0-1.11,0-2.23.07-3.32-.07-3.77-.5-6.23-3.22-6.1-6.63.14-3.56,2.52-5.94,6.57-6.01,7.94-.14,15.89-.05,23.84-.05,2.59,0,5.17,0,7.76,0h0Z"/>
  <path class="cls-1" d="m74.26,350.09c-7.41,0-14.81,0-22.22,0-1.3,0-2.6.07-3.88-.07-3.36-.39-5.5-2.55-5.77-5.7-.26-3.02,1.62-5.85,4.71-6.68,1.4-.37,2.93-.32,4.41-.32,15-.02,30-.01,44.99,0,1.11,0,2.24-.06,3.32.12,3.75.64,6.11,3.51,5.83,6.93-.27,3.19-2.75,5.5-6.4,5.68-2.96.15-5.92.05-8.89.05-5.37,0-10.74,0-16.11,0Z"/>
  <path class="cls-1" d="m181.67,154.77c11.81-1.11,22.94,10.91,22.53,22.44-.45,12.62-10.07,22.59-22.62,22.58-12.48-.02-22.15-10.09-22.55-22.68-.36-11.38,10.66-23.47,22.64-22.34Zm9.73,22.16c-.12-5.35-4.73-9.66-10.15-9.48-5.13.17-9.4,4.55-9.42,9.67-.02,5.29,4.64,9.91,9.9,9.83,5.39-.08,9.78-4.63,9.67-10.02Z"/>
  <path class="cls-1" d="m252.97,263.79c-.58-10.34,8.57-17.25,16.61-17.1,8.61.16,16.7,6.27,16.99,17,.25,9.06-7.63,16.73-16.63,16.84-9.53.11-17.41-7.65-16.97-16.73Zm22.28-.03c.03-3.3-2.27-6-5.43-5.98-3.77.02-6.07,2.74-5.97,5.91.1,3.2,2.47,5.63,5.71,5.73,3.09.1,5.66-2.46,5.69-5.66Z"/>
</svg>