<?xml version="1.0" encoding="UTF-8"?>
<svg id="Capa_1" data-name="Capa 1" xmlns="http://www.w3.org/2000/svg" viewBox="0 0 535 464">
  <defs>
    <style>
      .cls-1 {
        fill: #5754c9;
        stroke-width: 0px;
      }
    </style>
  </defs>
  <path class="cls-1" d="m78.77,163.57v8.73c0,67.2,0,134.4,0,201.61,0,11.95,1.5,13.45,13.42,13.45,18.02.01,36.04-.04,54.06.06,2.62.01,5.77-.07,7.69,1.28,1.73,1.22,3.55,5.23,2.79,6.47-1.44,2.37-4.63,5.06-7.17,5.14-14.67.48-29.36.24-44.04.25-5.78,0-11.57.04-17.35-.01-14.06-.14-22.23-8.34-22.24-22.55-.03-67.42-.02-134.85-.02-202.27,0-28.71-.02-57.41,0-86.12.02-15.09,7.98-23.17,22.94-23.17,127.25-.02,254.51-.02,381.76,0,14.94,0,22.93,8.1,22.93,23.19.02,95.91.02,191.81,0,287.72,0,15.08-8,23.19-22.93,23.2-94.77.03-189.54.01-284.32,0-1.78,0-4.09.56-5.21-.33-2.18-1.73-4.88-4.2-5.1-6.57-.16-1.8,2.84-4.73,5.06-5.69,2.48-1.07,5.67-.58,8.56-.58,92.33-.02,184.65-.01,276.98-.02,12.86,0,14.13-1.27,14.13-14.09,0-66.98,0-133.96,0-200.94,0-8.74-.02-8.76-8.74-8.76-128.14,0-256.29,0-384.43,0h-8.78Zm.54-13.73h209.65c0-13.82,0-27.14,0-40.46,0-10.77,1.38-12.12,12.4-12.13,49.6,0,99.19,0,148.79,0,1.56,0,3.12-.06,4.67.05,5.29.36,8.11,3.05,8.05,8.54-.07,6.01,0,12.01-.02,18.02-.02,4.46-1.44,8.22-6.53,8.33-5.14.11-6.69-3.61-6.79-8.08-.09-4.33-.02-8.66-.02-13.06h-147.44c0,10.75.28,21.14-.11,31.5-.22,5.89,1.26,7.97,7.68,7.94,54.49-.28,108.98-.16,163.47-.16,2.18,0,4.36,0,7.16,0,.17-2.97.42-5.34.43-7.72.04-15.57.02-31.14.02-46.72,0-15.84-.44-16.28-15.93-16.28-123.44,0-246.88,0-370.31,0-1.78,0-3.56-.03-5.34.01-7.92.19-10.29,2.43-10.33,10.48-.1,18.24-.04,36.48-.01,54.73,0,1.51.3,3.03.51,5Z"/>
  <path class="cls-1" d="m419.55,238.32c-22.38-7.83-25.05-28.96-17.87-41.7,6.21-11.01,18.37-16.4,31.3-13.82,10.69,2.13,20.19,12.48,21.68,23.6,1.65,12.31-4.5,24.41-16.04,29.47-4.52,1.98-5.67,4.32-5.57,8.82.26,11.53.09,23.06.09,34.36,27.87,10.71,39.23,27.73,34.86,51.61-3.44,18.82-22.08,33.78-41.84,33.59-19.9-.19-37.79-15.54-41.3-34.23-3.61-19.17,5.9-43.36,34.7-50.65v-41.05Zm.29,55.65c-14.67,2.73-24,16.18-22.46,31.36,1.46,14.39,14.4,25.62,29.4,25.51,15.16-.11,27.81-11.79,28.98-26.77,1.12-14.22-8.53-27.49-22.63-30.07,0,8.5.01,16.86,0,25.22,0,4.64-1.23,8.95-6.68,8.91-5.39-.04-6.64-4.27-6.62-8.97.04-8.21.01-16.43.01-25.19Zm21.65-83.51c.02-8.48-6.7-15.38-14.98-15.4-8.08-.02-15.35,7.18-15.43,15.26-.07,8.26,6.81,15.07,15.3,15.11,8.77.04,15.1-6.23,15.11-14.97Z"/>
  <path class="cls-1" d="m316.03,279.49c0-12.91-.16-25.15.1-37.37.08-3.91-2.3-4.58-4.97-5.84-10.37-4.87-16.17-13.3-16.76-24.58-.57-11.07,4.44-19.83,13.95-25.6,13.4-8.13,31.08-3.46,38.91,10.05,7.87,13.58,3.23,31.07-10.39,38.84-2.28,1.3-4.74,2.28-7.47,3.58,0,25.9,0,51.92,0,77.95,0,5.19.54,11.49-6.62,11.53-7.22.05-6.7-6.31-6.72-11.47-.03-7.47,0-14.94,0-22.57-13.75,2.66-23.37,15.44-22.6,28.93.84,14.76,12.32,26.79,26.59,27.83,11.38.83,20.58-3.32,26.94-12.77,6.36-9.44,6.51-19.55,1.77-29.79-.47-1.01-1.14-1.92-1.61-2.92-1.75-3.7-1.42-6.98,2.35-9.21,3.98-2.35,6.97-.36,9,2.9,7.25,11.63,8.88,24.04,4.19,37.02-6.69,18.53-25.74,30.4-44.54,27.93-19.54-2.56-35.47-18.02-37.36-36.26-2.22-21.44,9.25-39.8,28.99-46.34,1.87-.62,3.78-1.11,6.27-1.84Zm6.59-54.06c8.53.03,15.46-6.59,15.55-14.86.09-8-7.17-15.4-15.22-15.51-8.28-.12-15.11,6.72-15.17,15.19-.07,8.81,6.13,15.15,14.83,15.19Z"/>
  <path class="cls-1" d="m165.59,217.13c-19.55,0-39.09.04-58.64-.01-9.28-.02-10.79-1.6-10.9-10.95-.05-4.44-.05-8.89,0-13.33.11-9.39,1.38-10.67,11.02-10.68,22.88-.04,45.76-.01,68.64-.01,16.88,0,33.76-.04,50.65.02,8.55.03,10.14,1.65,10.26,10.13.08,5.11.11,10.22-.01,15.33-.18,7.45-2.11,9.43-9.7,9.47-20.44.09-40.87.03-61.31.04Zm57.59-21.56h-113.51v7.72h113.51v-7.72Z"/>
  <path class="cls-1" d="m166.34,330.72c11.57,0,23.14-.04,34.7.01,7.78.04,9.53,1.73,9.62,9.28.08,7.12-.11,14.24.05,21.36.11,5.23-2.34,8.22-7.4,8.25-24.69.14-49.38.14-74.08-.01-4.6-.03-7.36-2.58-7.29-7.64.11-7.56.18-15.13-.03-22.69-.17-6.44,3.09-8.65,9.06-8.59,11.79.12,23.58.04,35.37.04Zm31.36,13.86h-62.59v11.29h62.59c.12-2.4.27-4.35.28-6.3,0-1.51-.17-3.01-.29-4.99Z"/>
  <path class="cls-1" d="m198.02,248.86c0-2.44,0-4.87,0-7.31.01-10.97.99-11.93,12.29-11.94,5.98,0,11.96,0,17.94.03,5.38.02,8.29,2.68,8.33,8.12.06,7.53.07,15.06,0,22.6-.05,5.33-2.6,8.2-8.2,8.12-7.31-.1-14.62-.13-21.93.01-5.81.12-8.7-2.34-8.45-8.32.15-3.76.03-7.53.03-11.3Zm13.38-5.67c-1.83,12.8-.47,14.03,11.43,10.92v-10.92h-11.43Z"/>
  <path class="cls-1" d="m134.54,248.91c0,4-.05,8.01,0,12.01.07,4.93-2.25,7.48-7.22,7.48-8.01,0-16.01.03-24.02-.01-4.62-.03-7.04-2.59-7.13-7.05-.16-8-.11-16.01-.04-24.02.05-5.24,3.06-7.63,8.07-7.68,7.34-.06,14.68-.03,22.02-.03,5.73,0,8.68,2.62,8.35,8.61-.19,3.55-.04,7.12-.04,10.68Zm-12.81-5.36h-12.01c-1.23,12.56.78,14.25,12.01,10.39v-10.39Z"/>
  <path class="cls-1" d="m217.01,280.17c19.62,0,19.53,0,19.65,19.5.12,20.4.5,19.53-19.66,19.57-21.27.04-18.98-.02-18.99-19.24,0-.22,0-.44,0-.66.08-19.06-2.59-19.47,19-19.16Zm-5.93,13.72v11.22h11.89v-11.22h-11.89Z"/>
  <path class="cls-1" d="m134.55,299.97c-.04,19.4,2.36,19.28-19.07,19.28-20.53,0-19.53.5-19.46-19.87.07-19.2.01-19.11,18.71-19.22,22.64-.14,19.68-.4,19.82,19.81Zm-24.86-6.11v11.21h11.83v-11.21h-11.83Z"/>
  <path class="cls-1" d="m166.66,268.44c-21.15.09-19.64,1.52-19.58-19.29.01-3.78.09-7.57,0-11.35-.15-5.68,2.87-8.12,8.2-8.16,7.34-.06,14.68-.05,22.02,0,5.32.04,8.32,2.41,8.23,8.11-.12,7.56-.09,15.13,0,22.69.06,5.61-2.65,8.15-8.18,8.01-3.56-.09-7.12-.02-10.68-.01Zm-5.94-25.24c-1.86,12.73-.46,14.01,11.41,10.93v-10.93h-11.41Z"/>
  <path class="cls-1" d="m147.08,299.43c.04-19.19-2.33-19.33,19.13-19.32,21.52.01,19.29-.03,19.29,19.14,0,20.37,2.25,19.96-19.78,20-20.99.04-18.62-.34-18.65-19.82Zm25.21-5.41h-11.95v11.13h11.95v-11.13Z"/>
  <path class="cls-1" d="m184.27,132.39c-26,0-52.01.02-78.01,0-8.51,0-10.08-1.58-10.19-10.15-.07-5.56.03-11.11.02-16.67-.01-5.55,3-8.05,8.27-8.27,1.33-.06,2.67-.03,4-.03,50.9,0,101.79,0,152.69,0,10.69,0,12.16,1.53,12.17,12.4,0,4.45.06,8.89-.01,13.34-.12,7.48-2,9.37-9.59,9.38-26.45.04-52.9.02-79.35.02Zm74.96-21.27H109.83c-1.46,5.5-.6,8.24,5.66,8.22,46.01-.17,92.03-.15,138.04-.01,5.99.02,7.56-2.32,5.7-8.21Z"/>
  <path class="cls-1" d="m395.73,123.81c10.66,0,21.31.03,31.97-.02,4.7-.02,8.81,1.17,8.89,6.63.08,5.53-4.11,6.77-8.76,6.77-21.53.01-43.06.02-64.6,0-4.59,0-8.86-1.11-8.89-6.65-.03-5.5,4.09-6.73,8.76-6.73,10.88,0,21.75,0,32.63,0Z"/>
  <path class="cls-1" d="m329.1,137.02c-2.22,0-4.94.81-6.55-.19-2.48-1.53-5.87-4.36-5.79-6.52.09-2.23,3.55-5.49,6.11-6.17,3.95-1.06,8.38-.43,12.6-.28,4.29.15,8.06,2.25,7.09,6.73-.55,2.55-4.16,4.87-6.89,6.38-1.7.94-4.35.17-6.57.17,0-.04,0-.08,0-.12Z"/>
</svg>