<?xml version="1.0" encoding="UTF-8"?>
<svg id="Capa_1" data-name="Capa 1" xmlns="http://www.w3.org/2000/svg" viewBox="0 0 495 470">
  <defs>
    <style>
      .cls-1 {
        fill: #5754c9;
        stroke-width: 0px;
      }
    </style>
  </defs>
  <path class="cls-1" d="m438.8,59.61c0-15.77-7.78-23.58-23.48-23.59-43.37-.03-86.73-.02-130.1,0-17.04,0-24.7,7.67-24.72,24.8-.03,35.6-.19,71.19.13,106.79,0,.74-.02,1.48-.09,2.21l-.48,5.32c-.11,1.2-1.07,2.15-2.27,2.24l-5.34.41c-.53.04-1.06.06-1.59.05-40.39-.32-80.78-.17-121.17-.14-9.19,0-11.9,2.65-12.02,11.77-.13,9.36,0,18.72-.06,28.08-.02,2.34-.35,4.68-.59,7.54-18.47,0-36.18-.11-53.89.04-11.97.1-18.25,6.43-18.26,18.29-.05,56.17-.05,112.34,0,168.51.01,11.57,6.27,17.9,17.72,17.95,24.89.09,49.77.09,74.66,0,11.36-.04,17.61-6.47,17.69-18.02.09-13.3.31-26.61-.1-39.91-.18-6.05,1.57-8.27,7.82-8.1,13.54.39,27.1.12,40.65.11,3.56,0,7.12,0,12.25,0-3.72,6.96-6.23,12.57-9.63,17.57-1.5,2.21-4.69,4.31-7.31,4.58-18.16,1.9-31.38,14.81-33.09,32.96-.7,7.39,2.03,10.78,9.32,10.79,46.28.07,92.57.07,138.85,0,5.56,0,9.73-4.55,9.4-10.1-1.05-17.61-15.32-32.02-32.88-33.53-2.26-.19-5.48-.77-6.47-2.32-3.79-5.92-6.86-12.3-10.98-19.95,4.55,0,7.44,0,10.33,0,23.65-.01,47.31.07,70.96-.08,9.43-.06,11.74-2.57,11.92-11.91.09-4.93.02-9.85.02-14.78,0-15.96,0-31.92,0-48.54,3.41-.16,6.04-.39,8.68-.4,13.31-.04,26.61.03,39.92-.03,16.2-.07,24.17-7.94,24.18-23.88.02-68.24.02-136.48,0-204.72ZM140.99,399.11c-.47,18.53,2.1,15.37-15.36,15.53-19.46.18-38.93-.15-58.39.16-6.07.1-8.75-1.29-8.49-8.02.68-17.17-2.22-14.46,14.64-14.69,8.96-.13,17.93-.02,26.89-.02,11.27,0,22.54.24,33.8-.09,5.47-.16,7.04,1.88,6.91,7.14Zm-82-21.05v-101.06h81.58v101.06H58.99Zm83.96-131.02c-.38,5.03-.08,10.12-.08,15.95H58.11c-.54-1.07-.75-1.29-.77-1.54q-2.29-21.58,19.23-21.58c19.62,0,39.23.15,58.84-.09,5.46-.07,7.98,1.44,7.54,7.26Zm12.02,1.93c0-17.96-2.68-21.26-20.43-24.77v-30.32h214.52v127.1h-194.09c0-13.5,0-26.5,0-39.49,0-10.84,0-21.67,0-32.51Zm132.97,148.91c7.82.04,13.63,8.63,18.06,17.13h-123.29c3.9-8.64,9.87-17.05,17.6-17.11,29.21-.22,58.42-.19,87.63-.03Zm-64.18-12.72c4.91-17.64,8.65-20.82,23.81-20.71,8.09.06,13.24,6.23,17.03,20.71h-40.84Zm125.41-33.14h-193.8v-20h193.8v20Zm73.17-83.64c-.15,1.53-3.45,3.92-5.34,3.95-16.65.31-33.31.18-50.46.18v-25.7h33.95c2.7,0,5.43-.21,8.11.05,4.71.44,12.99.22,13.44,1.93,1.61,6.16.93,13.05.3,19.59Zm.78-41.99c0,1.19-.3,2.38-.54,4.13h-56.54c0-13.15.02-25.9,0-38.66-.03-12.08-2.1-14.15-14.11-14.16-22.42-.01-44.84,0-67.26-.02-2.64,0-5.28-.23-8.19-.37v-83.95c2.57-.13,4.95-.34,7.33-.35,43.86-.02,87.71.01,131.57-.06,4.55,0,7.95-.13,7.91,6.32-.24,42.37-.13,84.74-.16,127.11Zm-16.4-149.14c-40.38,0-80.75,0-121.13,0h-9.38c0-6.96-.24-13.06.07-19.13.31-6.09,4.89-6.45,9.62-6.44,29.54.03,59.09.02,88.63.02,13.29,0,26.59.15,39.88-.06,6.31-.1,8.72,2.52,8.83,8.8.28,16.83.45,16.82-16.52,16.82Z"/>
</svg>