<?xml version="1.0" encoding="UTF-8"?><svg id="Capa_1" xmlns="http://www.w3.org/2000/svg" viewBox="0 0 267.5 338"><defs><style>.cls-1{fill:#fff;stroke-width:0px;}</style></defs><path class="cls-1" d="m123.03,120.62c-.34.72-.35,1.55-.02,2.27l98.38,215.45c.17.38.55.63.97.63h44.07c.91,0,1.51-.94,1.13-1.76L147.39,76.23c-.61-1.34-2.51-1.35-3.14-.02l-21.22,44.41Z"/><path class="cls-1" d="m27.96,194.97c-1.29,0-2.15-1.34-1.62-2.51L112.83,2.56c.26-.56,1.05-.56,1.31,0l22.02,47.85-64.14,142.77c-.49,1.09-1.58,1.8-2.78,1.8H27.96Z"/><path class="cls-1" d="m140.29,209.78c-.11-.23-.28-.42-.47-.56-.25-.18-.55-.28-.87-.28h-74.25c-.39,0-44.43-.02-44.43-.02L.15,248.74c-.29.63.17,1.36.87,1.36h41.65s113.99,0,113.99,0c.49,0,.81-.52.59-.96l-16.96-39.37Z"/></svg>