<?xml version="1.0" encoding="UTF-8"?>
<svg id="Capa_1" data-name="Capa 1" xmlns="http://www.w3.org/2000/svg" viewBox="0 0 428 425">
  <defs>
    <style>
      .cls-1 {
        fill: #5754c9;
        stroke-width: 0px;
      }
    </style>
  </defs>
  <path class="cls-1" d="m156.21,365.75c-10.45,0-18.43-2.46-25.1-7.75-2.06-1.63-4.31-3-6.92-4.59l-3.13-1.92-1.04,1.73c-6.62,10.98-16.67,12.39-24.69,12.39-3.6,0-7.3-.32-10.88-.62-11.07-.94-20.2-10.31-20.36-20.88-.41-26.57-.4-55.14.03-89.9.1-8.55,8.52-17.84,17.32-19.12,3.96-.58,8-.87,12.01-.87s7.67.27,11.33.81c3.36.49,6.53,2.53,9.6,4.5.93.6,1.86,1.2,2.81,1.77l1.32.79,1.1-1.07c12.36-12,26.54-17.84,43.33-17.84,1.4,0,2.85.04,4.29.12,5.76.33,11.95.48,19.47.48,4.98,0,10.02-.07,14.9-.13,4.89-.06,9.94-.13,14.93-.13h2.3c17.38.08,30.98,13.18,30.95,29.83-.03,16.84-13.4,29.65-31.1,29.8-3.91.03-7.82.04-11.73.04h-12.1c-2.7,0-5.4,0-8.1,0-.48,0-.9-.01-1.32-.03-.46-.02-.86-.03-1.26-.03-.75,0-1.31.05-1.72.16l-.45.12-.35.3c-2.83,2.46-4.4,4.49-4.55,5.87l-.03.29.05.28c.31,1.68,2.89,4.46,4.6,4.95l.23.07h.24c6.83.26,14.21.39,22.56.39,6.94,0,13.81-.08,21.99-.2,1.55-.02,3.26-.96,4.91-1.86.36-.2.7-.38,1.03-.56,11.49-6.04,22.97-12.09,34.45-18.14l2.38-1.25c16.66-8.78,33.89-17.86,50.99-26.82,1.42-.75,2.84-1.53,4.27-2.32,4.88-2.71,9.87-5.46,15.18-6.78,2.24-.56,4.53-.84,6.8-.84,11.53,0,22.08,7.28,26.88,18.55,5.56,13.04,1.07,27.46-11.17,35.9-17.44,12.03-35.21,24.22-52.39,36.01l-21.76,14.94c-2.64,1.81-5.29,3.6-7.94,5.38-6.07,4.08-12.34,8.3-18.27,12.75-4.89,3.68-10.28,5.39-16.94,5.39h-.33c-12.81-.1-29.7-.21-46.65-.21-14.83,0-28.24.08-40.98.26-.33,0-.67,0-1,0Zm-62.93-114.09c-.6,0-1.19,0-1.79.03-7.88.21-10.18,2.51-10.22,10.23-.05,8.72-.04,17.58-.03,26.15,0,3.89,0,7.71,0,11.53v11.23c-.02,8.73-.03,17.67.02,26.46.04,8.05,1.64,9.7,9.51,9.81,1.52.02,2.88.04,4.1.04,4.77,0,7.41-.29,8.62-1.89,1.22-1.61,1.48-4.67,1.64-11.35.47-19.96.38-40.28.3-59.93v-.79c-.02-4.66-.04-9.32-.05-13.98-.01-4.19-2.27-6.68-6.52-7.21-1.71-.21-3.53-.32-5.58-.32Zm68.04-9.74c-14.25,0-25.41,6.5-35.09,20.45-1.75,2.52-2.9,6.2-3,9.61-.14,4.68-.02,9.47.1,14.11.2,7.61.4,15.47-.56,23.1-2.04,16.32,3.57,26.58,18.19,33.27l.55.25c5.06,2.32,9.43,4.32,14.87,4.32h.44c5.14-.11,10.68-.16,17.46-.16,3.7,0,7.41.01,11.11.03h.64c3.91.02,7.83.04,11.75.04h.3c3.98,0,7.96.01,11.95.02,3.98.01,7.96.02,11.94.02,8.55,0,15.14-.06,21.37-.18,3.21-.07,6.7-1.12,9.1-2.75,27.17-18.47,54.55-37.31,81.03-55.53l18.05-12.42c5.71-3.93,7.23-9.77,3.96-15.24-2.04-3.42-5.7-5.46-9.76-5.46-2.11,0-4.24.57-6.16,1.63-1.14.63-2.22,1.33-3.37,2.07-1.31.85-2.66,1.72-4.08,2.46-30.98,16.37-63.02,33.3-95.01,49.99-3.19,1.66-6.66,2.61-9.78,2.67-7.38.13-14.92.2-23.07.2-6.67,0-13.57-.04-21.08-.13-8.48-.1-15.53-3.56-20.41-10.02-5.87-7.78-6.73-16.45-2.49-25.09,4.58-9.32,12.38-14.4,22.56-14.67,3.87-.1,8.01-.15,13.41-.15,2.22,0,4.44,0,6.66.02h.73c1.98,0,3.95.01,5.93.01,3.83,0,6.96-.02,9.85-.07,3.6-.06,6.75-1.41,8.87-3.79,2.02-2.28,2.95-5.35,2.62-8.64-.59-5.72-5.46-9.6-12.12-9.65-1.62-.01-3.25-.02-4.88-.02-4.8,0-9.69.05-14.42.09h-.13c-4.52.04-9.64.09-14.56.09-8.24,0-14.97-.14-21.19-.43-.77-.04-1.53-.05-2.28-.05Z"/>
  <path class="cls-1" d="m273.85,218.59c-19.85,0-38.51-9.07-49.91-24.27-3.61-4.81-6.97-6.68-11.99-6.68-.51,0-1.04.02-1.58.06-1.76.13-3.65.19-5.94.19-1.57,0-3.14-.03-4.72-.06-1.56-.03-3.13-.06-4.69-.06s-3.07.03-4.4.1c-.84.04-1.67.06-2.49.06-6.99,0-13.28-1.57-19.23-4.8-.85-.46-2.13-.73-3.52-.73-1.54,0-2.99.33-3.88.88-5.23,3.21-11.03,4.63-18.79,4.63-2.6,0-5.18-.15-8.27-.37-3.91-.28-7.44-3.42-8.11-4.05-7-6.56-13.81-13.52-20.2-20.09-5.6-5.77-5.6-10.69.02-16.48,1.06-1.09,2.11-2.18,3.17-3.28l.18-.19c5.29-5.48,10.72-11.12,16.52-16.17,2.73-2.37,6.96-4.07,11.33-4.54,2.35-.25,4.93-.37,8.11-.37,1.91,0,3.88.04,5.93.08l5.28.1-2.88-5.13c-2.51-4.49-4.67-8.35-7.22-12.01-4.89-7.03-6.82-14.21-5.9-21.96.45-3.76-.8-6.14-4.43-8.49-9.19-5.96-13.16-16.26-10.36-26.9,2.65-10.09,11.66-17.45,22.42-18.32.58-.05,1.17-.07,1.77-.07,9.35,0,18.37,6.03,22.43,15,4.68,10.33,1.36,22.56-8.09,29.73-5.78,4.39-7.56,12.69-4.04,18.9,4.75,8.37,10.05,17.13,16.21,26.76.73,1.15,2.84,2.28,4.33,2.33,4,.14,7.89.15,11.17.15l8.61-.02c1.92,0,3.83,0,5.75.03,0,0,.13,0,.13,0,1.3,0,2.21-.23,2.78-.69l.16-.13.13-.15c.48-.58.71-1.5.71-2.82-.02-4.06,0-8.12,0-12.19.03-8.4.06-17.04-.23-25.51-.06-1.82-2.15-4.3-4.09-5.71-9.25-6.76-12.9-15.86-10.56-26.32,2.25-10.03,8.88-16.49,19.2-18.69,1.69-.36,3.41-.54,5.11-.54,9.77,0,18.4,5.78,22.52,15.08,4.74,10.71,1.15,23.13-8.54,29.53-4.03,2.66-5.38,5.43-5.19,10.58.23,5.87.18,11.76.13,18l-.05,7.04,3.31-2.76c12.41-10.34,26.53-15.59,41.99-15.59,1.03,0,2.07.02,3.1.07h.02c.62,0,1.21-.09,1.69-.25l.88-.29.35-.86c.54-1.33.6-3.62.16-6.11-.69-3.93-2.44-7.65-4.17-8.84-7.05-4.88-11.23-12.34-11.49-20.49-.24-7.7,3.16-14.91,9.32-19.76,4.39-3.46,9.87-5.36,15.44-5.36,7.58,0,14.58,3.37,19.18,9.26,4.23,5.4,6.11,11.96,5.3,18.47-.83,6.62-4.35,12.63-9.92,16.94l-.73.56c-2.98,2.26-4.03,3.35-4.33,4.48l-.04.14-.02.14c-.62,5.25-.45,10.8.48,16.03l.11.64.46.45c.61.59,1.73,1.22,3.45,2.1.67.34,1.32.68,1.89,1.01,18.06,10.59,29.64,28.28,31.79,48.52,2.14,20.2-5.46,39.88-20.84,53.97-11.31,10.37-26.3,16.08-42.2,16.08h0Zm-52.75-49.69c6.4,0,10.59,2.64,14.03,8.81,7.6,13.66,22.77,22.48,38.65,22.48,3.9,0,7.75-.53,11.43-1.57,20.08-5.67,33.37-23.47,33.08-44.28-.28-20.14-14.09-37.72-33.58-42.75-3.61-.93-7.32-1.4-11.03-1.4-16.17,0-31.17,8.97-39.14,23.42-2.99,5.41-7.03,7.82-13.11,7.82h-.37c-4.79-.07-10.09-.1-16.66-.1-3.4,0-6.81,0-10.21.02h-1.01c-3.07,0-6.13.02-9.2.02h-1.75c-3.6,0-7.2.01-10.8.02-3.61.01-7.21.02-10.81.02-6.53,0-11.84-.04-16.69-.13h-.34c-3.95,0-6.83,1.23-9.65,4.11l-.3.31c-5.03,5.15-7.25,7.51-7.2,9.59.05,2.1,2.37,4.49,7.64,9.7,2.86,2.83,6.09,4.27,9.62,4.27,1.98,0,4.05-.46,6.14-1.38,1.14-.5,2.24-1.11,3.4-1.76,2.07-1.16,3.99-2.24,6.18-2.74,2.13-.48,4.62-.97,6.96-.97,1.96,0,3.49.34,4.7,1.04,6.71,3.9,14.18,5.72,23.49,5.72,1.22,0,2.5-.03,3.83-.09,1.65-.08,3.38-.11,5.45-.11,1.7,0,3.41.02,5.11.05h.19c1.63.03,3.26.05,4.89.05,2.23,0,4.08-.04,5.81-.13.43-.02.85-.03,1.26-.03Zm-1.94-126.23c-2.46,0-9.93,0-11.19,10.35l-.02.15v.15c.35,12.91,8.3,13.09,11.29,13.16h.42c7.4,0,11.21-4.04,11.34-12,.12-7.5-3.36-11.35-10.66-11.77-.4-.02-.79-.04-1.19-.04Zm-70.08.42c-9.44,1.98-10.43,7.29-10.16,12.22.4,7.09,4,10.69,10.69,10.69,3.73-.03,6.53-1.01,8.36-2.92,2.33-2.44,2.79-6.11,2.77-8.77-.04-4.82-1.38-9.93-10.98-11.25l-.34-.05-.34.07Zm139.42.1c-9.36,1.92-10.37,7.17-10.12,12.05.36,7.07,3.94,10.65,10.64,10.65,3.57,0,6.3-.94,8.12-2.77,2.38-2.4,2.87-6.07,2.86-8.74-.02-4.79-1.32-9.87-10.82-11.21l-.34-.05-.34.07Z"/>
  <path class="cls-1" d="m273.43,184.49c-15.92-.14-28.85-13.33-28.81-29.41.04-15.82,13.27-29.19,28.89-29.19h.12c16.13.07,28.79,12.87,28.83,29.13.02,8.08-3.01,15.59-8.54,21.13-5.37,5.38-12.55,8.34-20.23,8.34h-.26Zm.04-46.31c-9.87.2-16.68,7.31-16.56,17.29.11,9.46,7.22,16.65,16.54,16.71h.13c4.81,0,9.28-1.87,12.59-5.26,3.19-3.27,4.89-7.55,4.78-12.08-.22-9.35-7.73-16.67-17.11-16.67h-.37Z"/>
</svg>