<?xml version="1.0" encoding="UTF-8"?>
<svg id="Capa_1" data-name="Capa 1" xmlns="http://www.w3.org/2000/svg" viewBox="0 0 364 354.5">
  <defs>
    <style>
      .cls-1 {
        fill: #5754c9;
        stroke-width: 0px;
      }
    </style>
  </defs>
  <path class="cls-1" d="m34.52,261.55c.42-15.06,6.18-29.49,17.77-41.25,20.7-21.01,41.63-41.78,62.52-62.61,4.95-4.93,11.29-5.27,15.52-1.07,4.38,4.34,3.95,10.62-1.28,15.87-20.35,20.41-40.73,40.79-61.13,61.16-8.55,8.54-13.34,18.72-12.76,30.89,1.23,25.94,22.87,39.3,44.08,36.88,10.36-1.19,18.89-5.9,26.19-13.24,21.87-21.97,43.61-44.06,65.79-65.71,21.41-20.91,16.27-52.63-7.01-65.45-5.57-3.07-7.12-9.23-4.33-14.14,2.96-5.21,8.76-6.55,14.76-3.4,29.89,15.69,39.6,55.49,20.66,85.21-2.58,4.05-5.55,7.97-8.92,11.37-23,23.19-45.95,46.43-69.3,69.26-26.55,25.96-68.16,23.23-90.24-5.56-8.28-10.8-12.25-23.11-12.33-38.19Z"/>
  <path class="cls-1" d="m141.59,147.93c.09-11.9,5.81-26.48,17.68-38.32,23.7-23.65,47.46-47.25,71.49-70.58,18.1-17.58,44.69-21.89,67.67-11.65,21.69,9.66,35.53,31.93,34.6,56.6-.58,15.39-6.43,28.86-17.29,39.85-20.85,21.09-41.86,42.02-62.85,62.97-5.21,5.2-10.97,5.57-15.47,1.27-4.66-4.46-4.41-10.57.85-15.84,20.49-20.52,41.1-40.91,61.52-61.49,16.51-16.63,16.63-42.1.51-57.72-14.85-14.4-39.06-15.28-53.89-.88-24.87,24.14-49.46,48.58-73.49,73.54-17.79,18.47-13.71,46.53,7.84,60.94,5.34,3.57,7.22,8.09,5.43,13.08-1.58,4.4-6.42,7.39-11.14,6.47-2.05-.4-4.06-1.45-5.87-2.56-17.29-10.67-27.6-29.72-27.59-55.67Z"/>
</svg>