<?xml version="1.0" encoding="UTF-8"?>
<svg id="Capa_1" data-name="Capa 1" xmlns="http://www.w3.org/2000/svg" viewBox="0 0 440 370">
  <defs>
    <style>
      .cls-1 {
        fill: #5754c9;
        stroke-width: 0px;
      }
    </style>
  </defs>
  <path class="cls-1" d="m384.64,217.98c-.66-.23-1.38-.35-2.14-.35-2.85,0-5.87,1.65-8.3,2.98-1.88,1.03-2.54,3.05-3.07,4.67-.12.38-.25.76-.38,1.1-12.01,29.14-39.88,47.96-70.99,47.96-5.47,0-10.98-.6-16.37-1.78-35.39-7.74-60.9-39.22-60.71-74.89.22-1.8.4-3.61.57-5.37.39-3.97.75-7.71,1.56-11.38,7.03-31.71,34.45-56.72,65.21-59.47,2.74-.24,5.49-.37,8.19-.37,32.5,0,60.24,18.09,72.39,47.2.18.42.33.85.49,1.27.37.99.75,2,1.31,3.03,1.98,3.59,5.07,5.56,8.7,5.56,1.19,0,2.42-.22,3.66-.65,5.02-1.74,7.49-6.21,6.43-11.66-.37-1.9-1.06-3.71-1.69-5.22-15.14-36.49-50.41-60.06-89.85-60.06-5.09,0-10.25.39-15.33,1.17-26.18,4-49.05,18.3-64.4,40.28-15.41,22.06-20.98,48.6-15.68,74.73,8.37,41.29,44.33,73.92,85.51,77.61,3,.27,6.04.4,9.03.4h0c40.38,0,76.07-23.84,90.92-60.73.1-.26.22-.53.34-.8.81-1.88,1.81-4.21.99-6.48-1.24-3.46-3.09-7.58-6.4-8.76Z"/>
  <path class="cls-1" d="m83.26,73.5c1.44.09,2.85.1,4.16.1h245.86c-1.69,1.31-3.38,2.68-4.95,4.23-4.92,4.87-5.35,10.85-1.11,15.24,2.01,2.07,4.43,3.17,7.01,3.17,2.83,0,5.68-1.34,8.24-3.86,7.55-7.46,14.31-14.33,20.68-21.01,4.94-5.18,4.94-10.58,0-15.61-6.79-6.93-13.92-13.95-21.79-21.46-2.28-2.18-5.07-3.38-7.85-3.38-2.63,0-5.13,1.07-7.04,3-4.11,4.17-3.85,10.28.62,14.84,1.53,1.56,3.17,2.97,4.8,4.32h-55.47c-62.11,0-124.23,0-186.35.02h-.8c-2.61,0-4.97.04-7.36.52-5.39,1.08-8.62,5.23-8.23,10.57.4,5.4,4.06,8.97,9.55,9.32Z"/>
  <path class="cls-1" d="m223.98,273.91h-.38c-1.44,0-2.86.06-4.24.12-.68.03-1.35.06-2.03.08-.87.03-1.73.04-2.59.04-22.06,0-43.05-9.74-57.59-26.72-14.66-17.14-21.12-39.43-17.72-61.18,5.88-37.62,38.01-65.07,76.4-65.3.44.02.95.06,1.5.09,1.48.09,3.32.2,5.17.26.22,0,.44.01.66.01,7.21,0,12.08-4.07,12.12-10.12.02-2.69-.99-5.2-2.85-7.07-2.18-2.19-5.41-3.4-9.16-3.4h-1.72c-7.23.03-14.7.05-22,1.15-24.96,3.76-47.96,17.85-63.11,38.66-15.25,20.96-21.33,46.61-17.11,72.22,6.87,41.74,36.09,71.71,78.15,80.18,5.91,1.19,11.97,1.35,17.63,1.35,1.39,0,2.78,0,4.17-.02,1.37-.01,2.74-.02,4.1-.02h1.28c6.14,0,10.37-4.21,10.54-10.49.07-2.5-.8-4.75-2.5-6.51-2.05-2.12-5.15-3.31-8.71-3.34Z"/>
  <path class="cls-1" d="m138.27,274.11c-.87-.05-1.74-.09-2.62-.14-4.56-.23-9.28-.46-13.58-1.49-33.43-7.96-56.87-34.44-59.72-67.46-3.7-42.85,24.31-71.5,51.9-79.99,6-1.85,12.6-2.58,18.99-3.3,2.37-.26,4.82-.54,7.22-.87,10.08-1.37,11.04-7.76,10.98-10.44-.12-5.83-4.55-9.89-10.79-9.89-.33,0-.67.01-1.02.03-1.25.08-2.5.16-3.75.23-6.95.41-14.14.84-21,2.63-24.95,6.52-45.86,21.77-58.9,42.94-13.01,21.12-17.31,46.75-12.12,72.15,4.2,20.54,15.86,39.64,32.84,53.77,16.99,14.14,37.78,22.04,58.55,22.26.73,0,1.47,0,2.2,0h.55c8.6,0,13.12-3.25,13.43-9.63.18-3.75-1.29-10.15-13.17-10.82Z"/>
  <path class="cls-1" d="m396.66,197.32c-.6-5.94-4-9.41-9.56-9.77-.21-.01-.42-.02-.63-.02-5.43,0-10.06,4.5-10.13,9.83-.03,2.58.99,5.06,2.87,6.97,1.94,1.97,4.63,3.1,7.38,3.1h.2c3.21-.07,8.76-1.37,9.85-9.4l.05-.35-.04-.35Z"/>
</svg>