<?xml version="1.0" encoding="UTF-8"?>
<svg id="Capa_1" data-name="Capa 1" xmlns="http://www.w3.org/2000/svg" viewBox="0 0 895.43 336.83">
  <defs>
    <style>
      .cls-1 {
        fill: #fff;
        stroke-width: 0px;
      }
    </style>
  </defs>
  <g>
    <path class="cls-1" d="m353.09,143.06s-98.56.69-98.56.69c-.33,0-.63.18-.81.45s-.2.63-.06.92l9.8,21.39c.16.35.5.57.88.57h60.23c-1.73,32.33-35.71,57.27-64.28,57.27-3.99,0-8.05-.36-12.07-1.08-.06,0-.11-.02-.17-.02-.3,0-.58.14-.77.38-.22.29-.27.67-.12,1l10.91,23.83c.16.35.5.57.88.57h0c55.09-.13,95.08-41.23,95.08-97.72v-7.28c0-.26-.1-.51-.29-.69-.18-.18-.43-.28-.68-.28Z"/>
    <path class="cls-1" d="m192.13,104.46c.15.33.48.55.85.57.01,0,.02,0,.04,0,.35,0,.68-.19.85-.5,13.79-25,40.05-40.53,68.54-40.53,23.71,0,47.41,12.31,61.87,32.12.17.23.42.37.7.4.03,0,.06,0,.09,0,.25,0,.49-.1.67-.27l17.45-16.65c.36-.35.4-.92.09-1.31-19.41-24.4-50.04-38.96-81.92-38.96s-60.82,14.11-80.74,38.71c-.23.29-.28.68-.13,1.02l11.64,25.42Z"/>
  </g>
  <rect class="cls-1" x="384.32" y="41.65" width="27.3" height="206.78" rx=".97" ry=".97"/>
  <path class="cls-1" d="m530.27,223.29h-60.79V42.63c0-.54-.44-.97-.97-.97h-25.35c-.54,0-.97.44-.97.97v204.83c0,.54.44.97.97.97h87.11c.54,0,.97-.44.97-.97v-23.19c0-.54-.44-.97-.97-.97Z"/>
  <rect class="cls-1" x="547.07" y="41.65" width="27.3" height="206.78" rx=".97" ry=".97"/>
  <path class="cls-1" d="m695.8,223.29h-65.39l81.93-180.19c.17-.3.17-.67,0-.97-.17-.3-.49-.48-.84-.48h-106.4c-.54,0-.97.44-.97.97v23.19c0,.54.44.97.97.97l68.07.26-82.19,179.93c-.17.3-.17.67,0,.97.17.3.49.48.84.48h93.34c.38,0,.73-.22.88-.57l10.62-23.19c.14-.3.11-.65-.07-.93-.18-.28-.49-.45-.82-.45Z"/>
  <path class="cls-1" d="m895.35,247.08l-95.11-207.65c-.16-.34-.49-.56-.87-.56s-.71.22-.87.56l-95.11,207.65c-.13.3-.11.64.06.91.18.27.48.44.8.44h26.68c.37,0,.71-.22.87-.56l67.07-148.42,30.46,67.39-38.26-.09-11.14,24.63h60.64l26.35,56.5c.15.34.49.56.87.56h26.68c.32,0,.63-.17.8-.44.17-.27.2-.62.06-.91Z"/>
  <path class="cls-1" d="m122.97,118.48c-.34.72-.35,1.55-.02,2.27l98.38,215.45c.17.38.55.63.97.63h44.07c.91,0,1.51-.94,1.13-1.76L147.32,74.1c-.61-1.34-2.51-1.35-3.14-.02l-21.22,44.41Z"/>
  <path class="cls-1" d="m27.9,192.83c-1.29,0-2.15-1.34-1.62-2.51L112.77.42c.26-.56,1.05-.56,1.31,0l22.02,47.85-64.14,142.77c-.49,1.09-1.58,1.8-2.78,1.8H27.9Z"/>
  <path class="cls-1" d="m140.23,207.65c-.11-.23-.28-.42-.47-.56-.25-.18-.55-.28-.87-.28h-74.25c-.39,0-44.43-.02-44.43-.02L.09,246.61c-.29.63.17,1.36.87,1.36h41.65s113.99,0,113.99,0c.49,0,.81-.52.59-.96l-16.96-39.37Z"/>
</svg>