<?xml version="1.0" encoding="UTF-8"?>
<svg id="Capa_1" data-name="Capa 1" xmlns="http://www.w3.org/2000/svg" viewBox="0 0 400 400">
  <defs>
    <style>
      .cls-1 {
        fill: #5754c9;
        stroke-width: 0px;
      }
    </style>
  </defs>
  <path class="cls-1" d="m205.02,383.1c-15.3-.06-30.33-.07-41.72-.07h-80.95c-13.6.01-27.19.01-40.79,0-.84,0-2.65,0-3.45-.15-.15-.77-.16-2.51-.16-3.32-.01-2.11,0-4.23,0-6.34.01-2.84.03-5.78-.02-8.68-.02-1.2.23-1.5.23-1.51.05-.05.42-.23,1.37-.23h.15c1.2.02,2.39.03,3.59.03,1.43,0,2.86-.01,4.3-.02,1.42-.01,2.83-.02,4.25-.02,2.05,0,3.74.02,5.32.08.18,0,.35,0,.52,0,4.73,0,7.69-2.39,8.8-7.11,1.19-5.05,2.48-10.18,3.72-15.14,1.67-6.63,3.39-13.49,4.9-20.29,1.14-5.12,4.25-7.72,9.52-7.94,9.48-.41,9.47-7.23,9.46-10.89-.09-76.91-.09-155.12-.08-230.74V27.57c0-.57,0-1.14-.01-1.72-.02-1.58-.03-3.08.08-4.54.44-5.55,4.37-9.31,9.78-9.36,6.84-.06,13.52-.09,19.85-.09s12.6.03,18.58.09c5.92.06,9.68,3.92,9.81,10.09.05,2.58.04,5.22.03,7.78,0,1.89-.02,3.79,0,5.68.01,1.39,0,2.61,0,3.68-.03,4.54-.04,7.03,1.78,8.87,1.65,1.66,3.92,1.79,6.72,1.79.64,0,1.36,0,2.16-.02.97-.01,2.07-.03,3.31-.03h.11c19.45.01,38.91.02,58.36.02h95.59c.47-.01,2.32-.03,2.77-.03.83,0,1.92.01,2.98.1,2.87.23,5.46,1.79,7.09,4.27,1.6,2.44,2,5.36,1.1,8.02-1.72,5.08-3.43,10.16-5.13,15.25-4.97,14.83-10.1,30.17-15.71,45.01-4.15,10.99-1.44,20.62,1.68,29.54,4.14,11.8,8.07,23.45,12.07,35.34.39,1.15.78,2.3,1.17,3.45,1.55,4.54,3.16,9.23,4.29,13.89,1.49,6.13,1.46,10.62-3.22,13.99-1.89,1.36-3.97,1.46-6.7,1.46,0,0-44.3,0-65.9,0h-93.16c-9.99,0-11.37,1.4-11.37,11.58,0,6.21,0,12.42,0,18.62.01,17.16.03,34.9-.07,52.34-.02,4.43.96,9.03,8.47,9.59,7.48.56,9.76,2.69,11.64,10.83,1.38,5.98,2.91,12.01,4.38,17.84,1.25,4.95,2.55,10.07,3.75,15.12,1.07,4.54,4.02,6.84,8.76,6.84.25,0,.51,0,.78-.02,1.34-.06,2.76-.08,4.62-.08.88,0,1.76,0,2.63.01.89,0,1.78.01,2.67.01,1.67,0,3.87-.02,6.11-.15.21-.01.41-.02.61-.02,1,0,1.4.18,1.46.25,0,0,.34.41.28,2.17-.17,4.56-.3,9.94.03,15.29.11,1.79-.26,2.24-.3,2.28-.08.08-.58.5-2.85.5h-.08Zm-104.27-50.11c-4.71,0-7.61,2.43-8.61,7.22-.23,1.08-.44,2.17-.64,3.26-.69,3.61-1.35,7.02-2.68,10.2-.76,1.81-1.59,4.47-.09,6.72,1.65,2.49,4.96,2.49,6.05,2.49h.39c3.39-.08,7.11-.11,11.69-.11,2.42,0,4.85,0,7.27.02,2.43,0,4.86.02,7.29.02,0,0,14.51-.02,17.19-.02,4.26,0,8.53.01,12.79.05h.15c1.7,0,4.12-.22,5.6-2.17,1.64-2.15.88-4.86.64-5.75-.52-1.87-.91-3.76-1.33-5.76-.68-3.27-1.38-6.64-2.68-9.96-1.04-2.65-3.05-6.18-8.53-6.18-7.71.05-15.22.07-22.42.07s-14.88-.03-22-.08h-.1ZM123.07,32.04c-2.66,0-4.62.67-6,2.06-2.1,2.1-2.09,5.17-2.09,7.41.04,33.75.03,67.5.03,101.25v57.08c0,33.81.01,68.77-.05,103.15,0,2.23.24,5.04,2.19,6.99,1.43,1.44,3.48,2.13,6.27,2.13h.17c8.35-.08,8.35-6.62,8.35-8.77-.07-95.72-.06-181.58.02-262.48,0-5.98-2.79-8.77-8.79-8.8h-.08Zm38.6,38.02c-7.94,0-9.54,1.58-9.54,9.41,0,10.47,0,20.95,0,31.42,0,26.05.02,52.99-.11,79.47-.01,2.35.23,5.3,2.25,7.33,1.99,2,4.83,2.26,7.07,2.26h.26c9.39-.1,19.46-.14,32.65-.14,5.34,0,10.68,0,16.02.01,5.34,0,10.68.01,16.03.01h41.01c9.89,0,19.77,0,29.66,0,3.8,0,7.08,0,8.78-2.45,1.7-2.45.5-5.65-.88-9.34-1.26-3.35-2.4-6.85-3.5-10.23l-.48-1.47c-1.06-3.24-2.09-6.57-3.09-9.79-2.31-7.46-4.7-15.18-7.68-22.58-2.36-5.87-2.84-10.01-1.6-13.85,4.27-13.25,8.9-26.64,13.37-39.6,1.09-3.15,2.18-6.3,3.26-9.45,1.2-3.48,1.99-6.32.38-8.58-1.6-2.24-4.56-2.43-7.97-2.43-27.37,0-54.75-.01-82.12-.01-17.92,0-35.85,0-53.77,0Z"/>
  <path class="cls-1" d="m200.14,123.97c-3.59-.01-7.18-.02-10.77-.02h-5.71c-.86,0-1.32-.16-1.45-.3-.15-.16-.33-.68-.31-1.64.04-2.95.03-5.93.02-8.82,0-1.23,0-2.46,0-3.69,0-1.22,0-2.43,0-3.65.01-2.74.02-5.57-.03-8.37-.02-1.04.2-1.32.2-1.32,0,0,.26-.2,1.21-.2,2.98.03,5.9.03,8.82.03s5.83,0,8.74-.02c.83,0,1.08.16,1.09.17h0s.17.26.16,1.09c-.03,9.97-.02,17.67,0,24.97,0,.83-.15,1.29-.29,1.42-.15.16-.68.34-1.65.34h-.03Z"/>
  <path class="cls-1" d="m193.85,173.96c-3.48,0-6.95,0-10.43-.02-1.2,0-1.52-.07-1.51-1.7.01-8.32.02-16.64,0-24.96,0-.87.17-1.13.18-1.14h0s.25-.16,1.03-.16h1.25c2.55,0,5.11.02,7.66.02,2.87,0,5.73,0,8.6-.03h0c1.03,0,1.29.2,1.29.21,0,0,.21.28.2,1.3-.04,2.94-.03,5.92-.02,8.79,0,1.24,0,2.48,0,3.72s0,2.4,0,3.6c0,2.75-.02,5.6.02,8.41.01.98-.16,1.51-.32,1.67-.13.14-.58.29-1.41.29,0,0-4.37,0-6.54,0Z"/>
</svg>