<?xml version="1.0" encoding="UTF-8"?>
<svg id="Capa_1" data-name="Capa 1" xmlns="http://www.w3.org/2000/svg" viewBox="0 0 402 382">
  <defs>
    <style>
      .cls-1 {
        fill: #5754c9;
        stroke-width: 0px;
      }
    </style>
  </defs>
  <path class="cls-1" d="m320.07,301.95c-2.38,0-4.61-1.01-6.64-3-5.2-5.12-10.45-10.38-15.52-15.46,0,0-42.01-42.02-50.82-50.82-.8-.79-1.62-1.56-2.48-2.37-.4-.38-.81-.76-1.24-1.16l-1.21-1.15-1.35.99c-20.49,15.12-42.28,22.79-64.75,22.79-7.99,0-16.23-.96-24.5-2.87-24.68-5.68-44.98-19.06-60.31-39.77-14.76-19.93-21.83-44.63-19.92-69.54,1.91-24.9,12.65-48.31,30.25-65.92,19.69-19.7,45.96-30.54,73.98-30.54,22.27,0,43.42,6.92,61.17,20.01,23.81,17.55,37.91,41.26,41.92,70.45,3.9,28.44-3.3,54.5-22.04,79.65l-1.04,1.4,1.25,1.22c2.62,2.57,5.23,5.13,7.84,7.68,5.66,5.53,11.51,11.25,17.19,16.9,7.43,7.39,14.84,14.8,22.25,22.21,7.23,7.23,14.46,14.46,21.71,21.67,3.24,3.22,4.42,5.98,3.95,9.21-.57,3.9-2.68,6.53-6.29,7.8-1.16.41-2.3.62-3.39.62ZM173.79,62.45c-45.14,0-83.43,38.72-83.62,84.56-.09,22.42,9.07,44.54,25.15,60.69,15.95,16.02,37.2,24.84,59.84,24.84h.19c47.6-.1,84.99-37.5,85.11-85.13.06-22.73-8.73-44.09-24.74-60.14-15.74-15.78-37.14-24.82-58.73-24.82-.57,0-1.13,0-1.71.02-.44,0-.97-.01-1.49-.01Z"/>
  <path class="cls-1" d="m139.36,193.6c-.71-.37-1.43-.7-2.13-1.03-1.82-.85-3.54-1.65-4.75-2.81-10.91-10.38-17.22-25.67-17.31-41.96-.09-16.45,6.13-31.99,17.08-42.64,2.18-2.12,4.82-3.29,7.42-3.29,2.34,0,4.55.92,6.37,2.67,1.91,1.82,2.98,4.17,3.03,6.62.05,2.47-.91,4.81-2.79,6.76-16.24,16.87-16.19,42.29.12,59.12,2.87,2.97,3.46,6.54,1.69,10.33-1.64,3.53-4.43,5.52-8.73,6.23Z"/>
</svg>