<?xml version="1.0" encoding="UTF-8"?>
<svg id="Capa_1" data-name="Capa 1" xmlns="http://www.w3.org/2000/svg" viewBox="0 0 428 409">
  <defs>
    <style>
      .cls-1 {
        fill: #5754c9;
        stroke-width: 0px;
      }
    </style>
  </defs>
  <path class="cls-1" d="m321.24,105.41c1.81-1.94,3.62-3.87,5.43-5.81q-4.36-7,1.8-13.17c9.66-9.67,19.29-19.36,28.98-29,7.64-7.6,15.52-7.55,23.05.1,4.33,4.39,8.66,8.78,12.86,13.29,6.43,6.9,6.31,14.93-.38,21.7-9.96,10.07-20.01,20.05-30.03,30.06-5.43,5.43-5.77,5.46-11.97,1.34-7.59,7.7-15.15,15.38-22.93,23.28,1.88,4.9,4.5,10.46,6.16,16.29,6.4,22.39,1.75,42.71-11.88,61.34-1.7,2.33-2.94,5.61-2.96,8.46-.2,34.84-.12,69.68-.14,104.52,0,14.12-8.2,22.35-22.27,22.35-62.34.02-124.67.02-187.01,0-13.72,0-22.04-8.3-22.05-22.12-.03-85.02-.03-170.03,0-255.05,0-13.77,8.4-22.18,22.05-22.18,62.5-.02,125.01-.02,187.51,0,13.94,0,22.28,8.34,22.46,22.43.09,7.23.02,14.45.02,21.68l1.28.51Zm-11.98,7.29c.12-9.34.03-18.69.01-28.03-.01-7.7-6.27-13.93-13.97-13.94-61.17,0-122.35,0-183.52,0-10.67,0-14,3.34-14,14.07-.01,35.68,0,71.35,0,107.03,0,48.35-.01,96.69.01,145.04,0,9.29,3.37,13.25,11.69,13.25,62.84.06,125.68.05,188.53,0,7.93,0,11.26-3.47,11.27-11.29.03-32.18.02-64.35,0-96.53,0-1.35-.24-2.7-.43-4.65-11.28,8.14-23.28,12.17-36.09,13.51v75.5c4.51,0,8.67-.43,12.66.17,1.82.28,4.03,1.86,4.77,3.54,1.51,3.44-.79,5.65-4.18,6.03-1.32.15-2.66.13-3.99.13-52.34,0-104.68,0-157.02,0-1.49,0-3.39.39-4.39-.35-1.64-1.22-3.75-3.25-3.7-4.87.05-1.58,2.33-3.58,4.09-4.46,1.58-.8,3.8-.33,5.87-.43.1-1.81.23-3.12.23-4.43.02-13.17.04-26.34,0-39.51-.01-3.49.55-6.61,4.85-6.66,4.51-.06,5.33,3.12,5.26,6.84-.05,2.67,0,5.33,0,8,0,11.8,0,23.59,0,35.6h34.96c0-2.38,0-4.37,0-6.35,0-26.17,0-52.35,0-78.52,0-1.66-.46-3.68.3-4.9.98-1.59,3.05-3.61,4.52-3.52,1.78.12,3.76,2.01,4.99,3.63.74.97.26,2.9.26,4.4,0,26.51,0,53.02,0,79.52v5.79h34.97c0-10.48,0-20.62,0-30.77,0-4.83-.08-9.67.05-14.5.09-3.31,1.81-5.4,5.32-5.24,3.24.15,4.68,2.18,4.69,5.31.02,3.33.02,6.67.02,10,0,11.63,0,23.26,0,35.15h34.73v-74.92c-1.98-.34-3.75-.66-5.52-.95-37.6-6.19-63.16-41.43-57.34-79.08,7.09-45.9,56.88-71.82,99.08-51.62.1.05.2.04.3.09,4.66,2.19,10.66.19,10.76-7.06Zm17.31,75.16c3.26-22.34-8.52-46.14-27.89-57.27-21.14-12.14-47.61-10.39-66.58,4.73-15.68,12.5-22.94,28.96-22.83,48.62,7.59,2.17,12.31-.08,16.4-5.93,5.62-8.04,12.03-15.54,18.41-23.01,1.63-1.91,4.51-4,6.63-3.82,1.69.14,3.74,3.39,4.53,5.65,3.79,10.82,7.19,21.78,10.74,32.68,2.53,7.77,5.08,15.53,7.89,24.09,7.77-7.87,14.86-14.9,21.76-22.12,2.48-2.6,5.1-3.82,8.76-3.69,7.3.25,14.62.07,22.18.07Zm-1.26,10.02c-5.89,0-11.39-.31-16.83.14-2.53.21-5.49,1.31-7.29,3.02-8.34,7.89-16.27,16.2-24.5,24.21-4.16,4.06-7.85,3.12-9.75-2.28-1.71-4.85-3.25-9.77-4.84-14.66-4.48-13.83-8.94-27.66-13.7-42.38-6.12,7.47-11.97,14.03-17.12,21.1-3.9,5.35-8.34,8.24-15.08,7.13-1.69-.28-3.49.15-5.25.25,1.87,22.53,26.8,44.46,51.69,46.53,33.26,2.77,57.06-21.28,62.66-43.05Zm9.85-105.37c7.5,7.54,14.51,14.59,21.87,22,9.82-9.93,19.64-19.87,29.49-29.8,3.29-3.31,1.75-6.23-2.09-9.23-4-3.13-7.72-6.63-10.72-10.71-3.24-4.4-5.99-4.67-9.03-1.64-9.77,9.76-19.57,19.49-29.52,29.38Zm-.91,14.69c-7.36,7.29-14.49,14.36-21.41,21.22,2.86,2.9,5.97,6.04,8.95,9.06,7.08-7.06,14.21-14.18,21.66-21.61-3.12-2.94-6.33-5.96-9.2-8.67Z"/>
  <path class="cls-1" d="m143.57,147.3c9.49-9.69,18.19-18.6,26.93-27.48,4.67-4.74,9.44-9.39,14.1-14.15,2.49-2.54,5.15-4.07,8.13-1.04,2.76,2.81,1.39,5.44-.97,7.8-14.72,14.71-29.45,29.43-44.14,44.16-3.14,3.15-5.99,2.91-8.96-.3-4.51-4.89-9.13-9.7-13.73-14.51-2.45-2.56-4.68-5.34-1.54-8.58,3.23-3.33,5.99-1.1,8.44,1.52,3.73,3.99,7.45,7.98,11.74,12.57Z"/>
</svg>