<?xml version="1.0" encoding="UTF-8"?>
<svg id="Capa_1" data-name="Capa 1" xmlns="http://www.w3.org/2000/svg" viewBox="0 0 416 384">
  <defs>
    <style>
      .cls-1 {
        fill: #5754c9;
        stroke-width: 0px;
      }
    </style>
  </defs>
  <path class="cls-1" d="m135.44,169.1c-2.47-14.19-6.16-27.79-7-41.56-2.43-40.05,27.89-75.54,68.27-81.32,40.33-5.78,79.29,20.5,88.73,59.63,4.79,19.86,1.36,38.9-4.87,57.77-.56,1.68-1.12,3.36-1.84,5.49,5.25,0,9.95-.08,14.66.01,13.3.26,24.16,8.35,27.95,21.12,10.26,34.58,20.6,69.14,30.52,103.82,6.78,23.71-11.19,42.63-33.21,42.44-62.33-.54-124.67-.19-187.01-.19-11.63,0-23.26.09-34.89-.02-24.87-.23-39.37-20.36-32.23-44.25,10.02-33.52,19.8-67.11,29.69-100.67,4.17-14.17,14.61-22.12,29.22-22.26,4.35-.04,8.7,0,12.01,0Zm125.37,36.07c8.39,5.46,17.09,10.07,24.53,16.21,12.33,10.18,13.25,26.29,2.56,38.13-3.93,4.35-8.8,8.33-14,10.98-35.01,17.84-71.66,19.32-109.05,9.3-12.09-3.24-23.91-7.72-33.44-16.35-14.83-13.43-14.48-31.67,1.27-43.96,6.9-5.38,14.88-9.38,22.64-14.17-1.15-1.98-2.58-4.47-4.05-6.94-2.92-4.91-4.78-11.76-9.11-14.16-4.46-2.48-11.32-.69-17.14-.64-9.7.09-14.38,3.39-17.15,12.69-9.97,33.52-19.9,67.06-29.63,100.65-4.19,14.48,3.94,24.91,19.05,24.91,73.77.02,147.54.02,221.32,0,14.87,0,23.1-10.28,19.01-24.44-9.86-34.12-20.03-68.15-30.22-102.17-2.42-8.07-6.81-11.3-15.08-11.6-5.63-.21-11.28-.25-16.89.08-1.57.09-3.65,1.45-4.46,2.83-3.67,6.25-6.98,12.71-10.17,18.65Zm-119.21-79.53c1.78,8.85,2.81,17.94,5.47,26.52,8.61,27.75,21.6,53.13,43.36,73.06,13.62,12.47,21.26,12.4,34.89.14,19.25-17.3,31.11-39.46,40.23-63.22,6.18-16.1,10.08-32.7,6.49-50.04-6.72-32.46-37.92-55.42-70.02-51.83-34.34,3.84-59.61,31.52-60.43,65.37Zm66.06,146.05c10.07-1.14,20.27-1.64,30.18-3.57,13.02-2.53,25.77-6.55,36.3-15.1,8.95-7.27,8.61-16.42-.91-23.04-5.45-3.79-11.75-6.35-17.58-9.61-3.2-1.79-4.95-.53-7.35,1.85-7.31,7.25-14.52,14.79-22.77,20.86-11.21,8.24-23.75,8.36-35.01.1-8.26-6.06-15.26-13.82-22.97-20.65-1.53-1.35-4.36-3.22-5.54-2.66-7.3,3.51-14.84,6.95-21.27,11.77-7.47,5.6-7.27,13.8-.34,20.09,3.17,2.88,6.9,5.36,10.75,7.25,17.77,8.69,36.61,12.58,56.5,12.71Z"/>
  <path class="cls-1" d="m310.07,255.96c6.92.17,10.23,6.06,7.2,11.17-6.3,10.64-14.81,19.28-25.43,25.62-3.65,2.18-7.64,1.65-9.97-2.28-2.19-3.7-1.25-7.04,2.06-10.14,7.22-6.78,14.07-13.94,21.19-20.82,1.71-1.65,3.9-2.81,4.95-3.55Z"/>
  <path class="cls-1" d="m105.99,256.14c1,.72,3.17,1.89,4.85,3.55,6.79,6.69,13.26,13.71,20.19,20.24,3.62,3.41,5.08,7.41,2.73,10.86-2.34,3.44-6.76,3.98-11.09,1.19-9.59-6.18-17.47-14.12-23.48-23.82-3.57-5.75-.72-11.89,6.79-12.02Z"/>
  <path class="cls-1" d="m207.3,161.67c-20.3-.32-35.91-16.48-35.58-36.83.33-20.31,16.53-35.96,36.83-35.58,20.36.38,35.84,16.41,35.58,36.83-.26,20.26-16.45,35.9-36.82,35.58Zm22.41-36.12c.06-11.95-9.75-21.84-21.69-21.87-11.99-.03-21.8,9.71-21.86,21.71-.06,11.95,9.74,21.84,21.69,21.87,11.96.04,21.81-9.74,21.87-21.71Z"/>
</svg>