<?xml version="1.0" encoding="UTF-8"?>
<svg id="Capa_1" data-name="Capa 1" xmlns="http://www.w3.org/2000/svg" viewBox="0 0 440 384">
  <defs>
    <style>
      .cls-1 {
        fill: #5754c9;
        stroke-width: 0px;
      }
    </style>
  </defs>
  <path class="cls-1" d="m79.79,290.55v-4.65c-1.3,0-2.42-.01-3.54,0-4.07.06-6.26-1.83-6.26-6,0-12.67-.08-25.33.04-38,.05-4.97,1.52-5.83,9.59-6.21.14-1.32.28-2.71.46-4.41-1.39-.15-2.49-.4-3.59-.38-4.31.08-6.52-1.86-6.51-6.28.03-12.5-.05-25,.04-37.5.04-5,1.78-6.27,7.94-6.27,48.5,0,96.99,0,145.49,0h6.24v-50.14c-12.84,12.82-28.67,9.99-44.32,10.06v-9.96c6.75,0,13.53.18,20.3-.04,12.4-.39,22.16-9.1,24.13-21.26,1.85-11.4-4.86-22.79-16-27-6.73-2.55-13.35-2.04-19.85,1.02-6.07,2.86-8.48,1.63-9.82-4.86-3.14-15.2-15.81-26.38-31.4-27.7-15.28-1.3-29.99,8.05-35.37,22.48q-2.95,7.91-11.07,7.47c-13.76-.76-25.66,10.08-26.23,23.9-.58,13.84,10.11,25.45,24.16,25.96,6.78.25,13.57.04,20.58.04v9.96c-10.55-.33-21.18,1.67-31.5-2.01-15.65-5.58-25.42-21.53-23.02-37.33,2.63-17.31,15.94-29.65,33.11-30.49,2.71-.13,4.36-.6,5.69-3.4,8.49-17.87,22.91-27.17,42.59-26.51,19.29.65,32.65,10.94,40.32,28.6.2.46.28.96.47,1.42.19.46.44.88.82,1.64,13.31-4.1,25.4-1.43,36.74,8.31,0-4.03-.1-7.12.02-10.21.33-8.58,6.39-14.87,14.98-14.9,36.66-.12,73.33-.13,109.99,0,9.17.03,15.01,6.63,15.03,16.37.05,24.17.02,48.33.02,72.5,0,34.33,0,68.66,0,102.99,0,12.66-5.55,18.14-18.34,18.15-16.98,0-33.97,0-51.67,0,0,3.49,0,6.75,0,10.01,0,9.25-.39,9.67-9.67,10.18-.12,1.34-.24,2.73-.39,4.44,1.4.13,2.52.35,3.62.32,4.35-.08,6.46,1.96,6.44,6.35-.04,12.5-.03,25,0,37.5,0,4.09-1.92,6.21-6.06,6.21-1,0-2,0-3,0-70.66,0-141.32,0-211.98,0-8.2,0-9.03-.85-9.03-9.23,0-10.17,0-20.33,0-30.5,0-9.65.12-9.79,9.8-10.64ZM359.81,86.22h-119.37v119.39h119.37v-119.39Zm-69.78,215.04H80.27v29.36h209.59c.06-1.21.16-2.17.16-3.13.01-8.64,0-17.28,0-26.23Zm-.11-35.36c-1.63,0-3.21,0-4.79,0-11.67,0-23.34,0-35,0-14.93,0-19.4-4.18-20.24-18.88-.02-.27-.32-.53-.45-.73H80.32v29.22h209.6v-9.61Zm-209.65-45.37h149.35v-29.39H80.27v29.39Zm279.77-4.27h-119.97c0,11.51-.02,22.66,0,33.81,0,3.9,2.11,5.77,5.94,5.79,3,.02,6,0,9,0,32.5,0,65,0,97.5,0,5.68,0,7.44-1.38,7.48-6.24.1-10.99.03-21.98.03-33.36Zm-119.66-140.74h119.45c.5-8.48-.59-9.64-8.69-9.65-34.11,0-68.23,0-102.34,0-8,0-9.18,1.33-8.43,9.65Zm-150.12,215.05h189.87c-.18-1.73-.33-3.11-.47-4.42H90.25v4.42Zm139.58-59.32H90.27v4.35h139.56v-4.35Z"/>
  <path class="cls-1" d="m130.17,125.83h-9.57c4.86-8.42,9.37-16.24,14.39-24.95,4.97,8.56,9.49,16.35,14.37,24.75-3.33.18-6.04.32-9.27.49v44.53h-9.91v-44.82Z"/>
  <path class="cls-1" d="m175.04,170.91c-5.05-8.74-9.56-16.56-14.4-24.95h9.16v-34.79h10.08v34.38h9.74c-4.99,8.69-9.49,16.5-14.59,25.36Z"/>
  <path class="cls-1" d="m164.81,131.19v9.43h-19.41v-9.43h19.41Z"/>
  <path class="cls-1" d="m300.06,145.85c9.63,0,18.45-.02,27.27,0,6.48.02,8.11,1.75,7.65,8-1.57,21.17-19.55,37.45-40.9,37.01-21.17-.43-38.57-17.79-39.03-38.95-.47-21.34,15.77-39.36,36.93-40.98,6.29-.48,8.06,1.14,8.08,7.56.03,8.95,0,17.89,0,27.35Zm23.85,10.03c-6.3,0-12.6-.03-18.9,0-15.87.09-15.1,1-14.99-14.74.04-6.41,0-12.81,0-19.25-14.27,1.08-25.64,15.31-24.94,30.44.73,15.97,14.14,28.62,30.18,28.5,14.55-.11,28.31-11.91,28.64-24.95Z"/>
  <path class="cls-1" d="m327.41,140.87c-5.49,0-10.98.02-16.47,0-3.85-.02-5.88-1.96-5.89-5.83-.02-11.15-.03-22.3,0-33.45.01-3.89,2.13-5.63,5.97-5.75,19.81-.64,39.57,19.1,39.04,38.98-.11,4.15-2.11,6.08-6.19,6.07-5.49-.02-10.98,0-16.47,0Zm-11.96-33.87v23.5h23.52c.14-9.5-11.71-23.46-23.52-23.5Z"/>
  <path class="cls-1" d="m90.22,320.64v-9.4h9.48v9.4h-9.48Z"/>
  <path class="cls-1" d="m110.29,310.98h9.35v9.6h-9.35v-9.6Z"/>
  <path class="cls-1" d="m130.39,311.06h9.35v9.6h-9.35v-9.6Z"/>
  <path class="cls-1" d="m90.4,255.97h9.24v9.6h-9.24v-9.6Z"/>
  <path class="cls-1" d="m110.18,265.52v-9.35h9.6v9.35h-9.6Z"/>
  <path class="cls-1" d="m139.82,256.23v9.4h-9.42v-9.4h9.42Z"/>
  <path class="cls-1" d="m90.31,200.96h9.31v9.58h-9.31v-9.58Z"/>
  <path class="cls-1" d="m119.64,210.71h-9.35v-9.6h9.35v9.6Z"/>
  <path class="cls-1" d="m139.8,201.2v9.44h-9.42v-9.44h9.42Z"/>
  <path class="cls-1" d="m300.26,250.86c-8.17.12-15-6.46-15.21-14.65-.21-8.35,6.62-15.32,15.03-15.33,8.17-.01,14.93,6.72,14.95,14.89.02,8.22-6.59,14.97-14.77,15.09Zm-1.09-9.32c.71,0,1.42,0,2.13,0,2.72-.66,3.76-4.13,3.34-5.97-.61-2.69-2.86-4.08-4.73-4.38-2.98-.48-4.39,1.95-4.61,5-.27,3.69,1.73,4.69,3.87,5.36Z"/>
</svg>