<?xml version="1.0" encoding="UTF-8"?>
<svg id="Capa_1" data-name="Capa 1" xmlns="http://www.w3.org/2000/svg" viewBox="0 0 389 382">
  <defs>
    <style>
      .cls-1 {
        fill: #5754c9;
        stroke-width: 0px;
      }
    </style>
  </defs>
  <path class="cls-1" d="m212.76,310.72c-3.68,0-9.87-1.09-10.08-8.41-.08-2.66.61-4.76,2.05-6.27,1.77-1.86,4.79-2.88,8.72-2.95,14.78-.27,29.11-3.78,42.6-10.42,37.13-18.28,59.87-59.3,55.31-99.75-4.91-43.5-34.76-78.04-76.05-87.99-8.05-1.94-16.25-2.92-24.37-2.92-48.41,0-90.08,35.1-99.07,83.46-.85,4.56-1.09,9.21-1.33,13.71-.04.81-.08,1.61-.13,2.42-.2,3.57-1.59,9.55-8.65,9.55-5.31-.03-8.5-3.63-8.6-9.63-.38-23.1,7.36-46.98,21.79-67.24,14.44-20.27,34.61-35.56,56.81-43.07,13.03-4.41,26.41-6.64,39.77-6.64,25.89,0,51.33,8.64,71.65,24.33,21.06,16.26,35.78,38.94,42.57,65.58,1.59,6.23,2.36,12.89,3.11,19.33.35,2.97.7,6.04,1.14,9.06-1.22,56.17-39.86,103.53-94.04,115.21-7.22,1.56-14.81,2.17-21.94,2.6-.42.03-.84.04-1.24.04Z"/>
  <path class="cls-1" d="m85.54,245.25c-6.54,0-13.08-.01-19.63-.05-3.66-.02-9.88-1.11-10.32-8.12-.32-5.02,2.33-8.34,7.28-9.09,2.35-.36,4.79-.41,6.87-.41,14.31-.01,28.62-.02,42.94-.02s29.08,0,43.62.03c2.07,0,4.79.06,7.4.49,4.1.67,6.61,3.44,6.86,7.6.19,3.11-.62,7.14-5.57,8.69-1.73.54-3.86.82-6.33.83-7.55.04-15.09.05-22.64.05h-23.81c-4.45-.01-8.89,0-13.34,0-4.44,0-8.89.01-13.33.01Z"/>
  <path class="cls-1" d="m207.22,208.19c-2.03,0-4.02-.86-5.75-2.49-1.78-1.67-2.75-3.69-2.81-5.85-.07-2.4.98-4.81,3.04-6.97,16.71-17.54,33.78-35.21,49.74-51.69,1.99-2.06,4.12-3.1,6.33-3.1,1.17,0,2.41.29,3.67.87,3.26,1.49,5.04,3.92,5.83,8-.35.66-.68,1.33-1,1.98-.93,1.88-1.82,3.66-3,4.91-14.42,15.21-29.97,31.37-48.95,50.87-2.21,2.27-4.66,3.47-7.09,3.47Z"/>
  <path class="cls-1" d="m129.54,286.67c-9.09,0-18.18-.01-27.27-.03-2.73,0-4.89-.17-6.8-.5-3.89-.68-6.66-3.79-6.89-7.73-.23-3.98,2.12-7.42,5.86-8.57,1.67-.51,3.62-.78,5.8-.8,4.61-.04,9.23-.06,13.84-.06,2.82,0,16.57.02,16.57.02,2.98,0,5.97-.01,8.95-.02,2.98-.01,5.96-.02,8.93-.02,4.7,0,8.55.03,12.12.08,3.4.05,6.11,1.05,7.83,2.87,1.49,1.58,2.21,3.82,2.09,6.46-.19,4.21-2.63,7.03-6.68,7.75-1.95.35-4.11.51-6.79.52-9.19.02-18.38.03-27.57.03Z"/>
  <path class="cls-1" d="m226.29,58.68c-.69,0-1.39-.08-2.08-.24-5.5-1.26-11.12-1.89-16.69-1.89s-11.3.64-17.04,1.9c-.7.15-1.4.23-2.08.23-2.19,0-4.21-.83-5.7-2.32-1.62-1.63-2.49-3.94-2.47-6.48.04-4.34,2.28-7.28,6.31-8.29,6.96-1.74,14-2.63,20.92-2.63s13.8.87,20.61,2.59c2.43.61,4.43,2.06,5.63,4.07,1.16,1.95,1.49,4.29.9,6.58-.97,3.82-4.39,6.49-8.32,6.49Z"/>
  <path class="cls-1" d="m144.86,328.04c-5.88,0-11.88-.05-17.83-.16-4.69-.08-8.45-3.96-8.37-8.64.07-4.66,3.82-8.29,8.71-8.44,1.98-.06,4.1-.09,6.67-.09,1.78,0,3.55.01,5.33.03,1.79.01,3.58.03,5.38.03s3.59-.01,5.39-.03c1.78-.01,3.56-.03,5.34-.03,2.56,0,4.68.03,6.65.09,5.18.16,8.43,3.4,8.48,8.45.05,5.07-3.24,8.54-8.17,8.63-5.8.1-11.72.16-17.58.16Z"/>
</svg>