<?xml version="1.0" encoding="UTF-8"?>
<svg id="Capa_1" data-name="Capa 1" xmlns="http://www.w3.org/2000/svg" viewBox="0 0 376 401">
  <defs>
    <style>
      .cls-1 {
        fill: #5754c9;
        stroke-width: 0px;
      }
    </style>
  </defs>
  <path class="cls-1" d="m292.23,50.28c16.11,4.24,20.36,9.83,20.36,26.83,0,32.9-.07,65.8.13,98.7.02,2.57,1.3,5.61,2.99,7.59,4.59,5.39,7.24,11.38,7.24,18.41.05,41.38.14,82.77-.05,124.15-.07,14.88-11.22,25.88-26.18,25.9-72.55.11-145.11.12-217.66,0-14.9-.03-25.97-11.18-26.01-26.08-.14-51.77-.07-103.55-.03-155.32,0-7.03,2.71-13.02,7.36-18.35,1.61-1.84,2.85-4.71,2.87-7.12.19-30.47.11-60.95.13-91.43,0-15.47,8.19-23.57,23.8-23.58,59.57,0,119.13,0,178.7,0,16.49,0,22.33,4.5,26.33,20.3Zm-104.51,291.51c35.51,0,71.02,0,106.53,0,12.81,0,18.59-5.84,18.59-18.78,0-39.49,0-78.99,0-118.48,0-13.21-5.71-18.89-19-18.89-42.44,0-84.88-.1-127.31.12-5.36.03-8.66-1.66-11.37-6.2-4.17-6.97-9.06-13.52-13.36-20.41-2.12-3.39-4.49-4.88-8.72-4.81-17.14.28-34.3.11-51.44.12-12.58.01-18.48,5.86-18.48,18.36-.01,50.06,0,100.12,0,150.18,0,13.14,5.75,18.8,19.09,18.8,35.16,0,70.33,0,105.49,0Zm93.94-166.31c0-2.31,0-3.84,0-5.38,0-38.95,0-77.9,0-116.84,0-9.58-3.58-13.13-13.2-13.13-60.59-.01-121.17-.01-181.76,0-9.6,0-13.16,3.56-13.16,13.15-.02,28.73,0,57.47,0,86.2,0,1.65,0,3.3,0,4.83,21.39,0,41.99.21,62.58-.13,5.73-.09,9.78,1.4,12.1,6.64,1.51,3.42,4.11,3.97,7.54,3.95,20.08-.13,40.16.02,60.24-.14,4.06-.03,6.84,1.24,9.13,4.6,3.21,4.72,6.7,9.25,10.29,13.68.96,1.18,2.7,2.44,4.09,2.46,13.81.18,27.63.11,42.16.11Zm20.79-.03v-5.98c0-20.94,0-41.87,0-62.81,0-11.42.06-22.84-.03-34.26-.06-7.02-3.42-10.59-10.25-11.09v114.13h10.28Zm-144.15-10.6c2.99,7.13,6.26,11.35,14.65,10.88,15.19-.84,30.46-.23,45.7-.25,1.62,0,3.24-.2,4.86-.3.29-.5.59-1,.88-1.51-3.46-2.94-6.81-8.25-10.4-8.42-18.3-.86-36.66-.4-55.69-.4Z"/>
  <path class="cls-1" d="m151.59,206.34c2.62,1.18,4.83,2.14,7.01,3.17,7.48,3.54,8.94,3,12.03-4.49.59-1.44.85-3.27,1.89-4.21,1.98-1.78,4.3-4.07,6.69-4.33,5.64-.63,11.41-.07,17.11-.25,3.84-.12,6.24,1.4,7.46,5.02.66,1.96,1.51,3.86,2.32,5.77,1.94,4.53,4.64,5.67,9,3.56,11.25-5.45,9.29-5.84,18.71,3.49.86.85,1.62,1.84,2.58,2.55,7.61,5.64,10.85,11.95,4.47,20.83-2.3,3.19-.55,6.95,3.18,7.72,10.52,2.18,12.87,8.91,11.39,18.3-.13.84-.02,1.73-.02,2.59-.02,12.43,1.01,11.01-10.51,15.66-4.92,1.99-5.97,4.63-3.69,9.33,5.25,10.84,5.73,9.11-3.42,18.29-2.81,2.82-5.76,5.52-8.42,8.47-2.77,3.08-5.73,3.48-9.24,1.48-1.65-.94-3.38-1.73-5.11-2.53-3.98-1.85-7.61-1.14-8.63,3.26-2.26,9.69-8.18,12.78-17.43,11.15-.84-.15-1.75-.14-2.59,0-8.86,1.51-14.44-1.48-16.66-10.75-1.14-4.77-4.45-5.71-8.87-3.55-11.23,5.46-9.32,5.77-18.69-3.53-.86-.85-1.62-1.84-2.59-2.55-7.67-5.63-10.79-11.96-4.45-20.82,2.28-3.19.52-6.95-3.2-7.72-10.5-2.18-12.88-8.9-11.39-18.29.11-.68.01-1.38.01-2.08.03-13.24-1.08-11.39,10.52-16.14,4.87-2,5.96-4.67,3.68-9.34-5.44-11.14-5.49-9.23,3.41-18.28,2.91-2.96,5.81-5.95,8.86-8.76,1.33-1.22,3.05-2.02,4.55-2.99Zm82.14,22.18c-2.01-2.12-4.45-4.27-6.37-6.81-2.71-3.57-5.4-3.54-9.18-1.56-8.22,4.31-17.16.62-20.81-8.09-.78-1.87-1.64-4.94-2.87-5.15-4.03-.71-8.35-.9-12.34-.14-1.52.29-2.72,3.56-3.61,5.66-3.44,8.11-12.66,12.18-20.1,8-4.54-2.56-7.51-1.99-10.38,1.96-.6.83-1.36,1.62-2.21,2.19-3.59,2.42-3.4,5.11-1.52,8.74,4.5,8.7,1.08,17.5-8.25,21.03-4.2,1.58-6.31,3.72-5.38,8.27.1.5.1,1.06,0,1.55-1.11,5.26,1.36,7.83,6.25,9.23,2.18.62,4.86,2.02,5.82,3.86,3.03,5.75,6.26,11.8,1.06,18.21-2.05,2.53-1.18,4.66,1.22,6.54,1.35,1.06,2.65,2.3,3.64,3.69,2.6,3.67,5.38,3.54,9.17,1.56,8.26-4.33,17.13-.65,20.79,8.11.78,1.86,1.65,4.93,2.88,5.14,4.03.71,8.35.89,12.34.13,1.52-.29,2.7-3.57,3.6-5.68,3.43-8.07,12.71-12.14,20.12-7.98,4.51,2.53,7.51,2.01,10.37-1.96.6-.83,1.36-1.62,2.21-2.19,3.62-2.42,3.4-5.14,1.55-8.76-1.31-2.57-2.47-6-1.86-8.61,1.48-6.33,4.41-12.07,11.92-13.33,3.01-.51,3.83-2.41,3.55-5.24-.19-1.89-.26-3.84.01-5.7.53-3.6-1.11-5.13-4.35-6.37-2.92-1.12-6.38-2.71-7.93-5.15-3.57-5.64-5.67-11.91-.67-18.16.52-.65.72-1.57,1.34-2.97Z"/>
  <path class="cls-1" d="m136.59,71.81h113.3v9.53h-113.3v-9.53Z"/>
  <path class="cls-1" d="m136.39,133.27v-9.46h113.46v9.46h-113.46Z"/>
  <path class="cls-1" d="m105,81.68c-4.67,0-9.35-.05-14.02.02-4.45.06-6.83-1.89-6.8-6.49.03-6.06,0-12.11.01-18.17,0-4.3,2.24-6.29,6.47-6.28,9.52.02,19.04,0,28.55.01,4.3,0,6.3,2.23,6.29,6.46-.02,6.06,0,12.11,0,18.17,0,4.3-2.25,6.3-6.48,6.28-4.67-.02-9.34,0-14.02,0Zm10.1-20.34h-20.48v9.91h20.48v-9.91Z"/>
  <path class="cls-1" d="m105.01,133.65c-4.67,0-9.35-.05-14.02.02-4.45.06-6.83-1.89-6.81-6.49.03-6.06,0-12.11,0-18.17,0-4.3,2.23-6.29,6.46-6.28,9.52.02,19.04,0,28.55,0,4.3,0,6.31,2.23,6.29,6.46-.02,6.06,0,12.11,0,18.17,0,4.29-2.24,6.31-6.47,6.29-4.67-.02-9.34,0-14.02,0Zm-10.45-10.55h20.39v-9.82h-20.39v9.82Z"/>
  <path class="cls-1" d="m224.04,51.17v9.4h-87.48v-9.4h87.48Z"/>
  <path class="cls-1" d="m136.34,112.43v-9.36h87.48v9.36h-87.48Z"/>
  <path class="cls-1" d="m261.08,81.34v-9.36h9.64v9.36h-9.64Z"/>
  <path class="cls-1" d="m261.29,123.79h9.41v9.5h-9.41v-9.5Z"/>
  <path class="cls-1" d="m224.22,263.88c-.11,19.79-16.44,36.07-36.15,36.05-19.99-.02-36.37-16.46-36.31-36.44.06-19.92,16.76-36.32,36.68-36.04,19.79.28,35.89,16.66,35.78,36.42Zm-10.13-.25c-.03-14.43-11.63-26.03-26.03-26.03-14.65,0-26.29,11.75-26.17,26.43.12,14.37,11.84,25.85,26.3,25.76,14.42-.1,25.93-11.72,25.9-26.16Z"/>
</svg>