<?xml version="1.0" encoding="UTF-8"?>
<svg id="Capa_1" data-name="Capa 1" xmlns="http://www.w3.org/2000/svg" viewBox="0 0 406 373">
  <defs>
    <style>
      .cls-1 {
        fill: #5754c9;
        stroke-width: 0px;
      }
    </style>
  </defs>
  <path class="cls-1" d="m237.27,206.18c-3.76-.05-5.13-.49-6.34-3.1-1.54-3.33-1.12-5.14,1.87-8.06,4.38-4.27,6.6-8.91,6.61-13.78,0-4.82-2.15-9.47-6.41-13.83-4.05-4.15-8.65-8.85-13.37-13.25-3.61-3.36-7.8-5.13-12.13-5.13-2.66,0-5.37.66-8.04,1.96-2.96,1.44-5.37,3.81-7.51,5.9l-.15.14c-1.3,1.27-2.15,1.45-2.88,1.45-.58,0-1.25-.13-2.06-.4-3.67-1.22-4.83-2.97-4.79-7.2.1-12.33-6.77-19.25-19.36-19.49-2.8-.05-5.66-.08-8.49-.08s-5.63.03-8.45.08c-12.68.24-19.6,7.31-19.48,19.93.03,3.83-.69,5.12-3.53,6.29-1.17.48-2.13.71-2.94.71-.96,0-2.12-.27-4.07-2.26-4.65-4.74-9.49-7.15-14.37-7.15s-9.81,2.42-14.61,7.2c-4.28,4.26-7.75,7.74-10.9,10.97-4.6,4.7-6.88,9.59-6.79,14.53.09,4.82,2.43,9.44,6.95,13.73,2.71,2.58,3.02,4.41,1.35,8.16-1.07,2.39-2.36,2.62-6.1,2.68-12.92.22-19.77,7.16-19.84,20.07-.03,5.87-.03,11.08,0,15.92.08,12.62,7.17,19.86,19.45,19.86.22,0,.99,0,.99,0,3.45,0,4.84,1,6.2,4.47,1.02,2.61.38,3.8-2.34,6.53-8.8,8.84-8.84,19.03-.12,27.95,2.81,2.88,5.71,5.75,8.51,8.52l2.42,2.41c5,4.97,9.83,7.38,14.77,7.38s9.67-2.39,14.5-7.31c1.79-1.83,2.97-2.07,3.88-2.07.79,0,1.72.21,2.86.64,2.99,1.14,3.79,2.55,3.74,6.55-.08,6.11,1.61,10.97,5.01,14.45,3.45,3.52,8.38,5.33,14.65,5.39,1.05,0,2.1.01,3.15.01h5.31c.61,0,1.22-.02,1.84-.04.57-.01,1.13-.03,1.7-.03.7,0,1.27.02,1.79.07.9.08,1.79.12,2.65.12,6.29,0,11.52-2.07,15.1-5.97,3.64-3.97,5.27-9.49,4.72-15.97-.15-1.76.28-2.96,2.96-4.22,1.39-.65,2.52-.97,3.47-.97s2.24.27,4.23,2.34c4.5,4.68,9.26,7.05,14.15,7.05,4.87,0,9.74-2.36,14.46-7.01,3.5-3.45,7.24-7.16,10.95-10.91,4.67-4.73,7.01-9.62,6.96-14.54-.04-4.85-2.41-9.59-7.03-14.1-2.63-2.57-2.96-4.15-1.55-7.33,1.16-2.62,2.42-3.34,5.87-3.34h.41c12.62,0,19.68-7.02,19.88-19.77.09-5.66.08-11.2,0-16.45-.21-12.67-7.02-19.46-19.7-19.64Zm-19.64,48.98c-4.08,5.63-5.25,12.57-3.21,19.02,1.12,3.56,3.71,6.54,5.99,9.16l.52.6c2.73,3.16,2.58,3.31.1,5.85-2.99,3.06-6.08,6.12-9.08,9.09l-1.46,1.44c-2.4,2.38-3.22,2.64-3.46,2.64-.17,0-.91-.18-3.04-2.45-4.45-4.75-9.29-7.06-14.81-7.06-3.06,0-6.22.71-9.67,2.18-9.26,3.94-13.66,10.49-13.45,20,.08,3.62-.3,4.3-.42,4.42-.19.19-1.05.52-4.73.53-2.57,0-5.13.01-7.7.01-2.1,0-4.19,0-6.29-.01-3.02-.01-3.82-.26-3.99-.37-.14-.2-.39-.98-.42-3.92-.12-10.83-3.7-16.24-13.67-20.67-3.33-1.48-6.55-2.23-9.57-2.23-5.44,0-10.46,2.42-14.92,7.19-2.04,2.18-2.78,2.35-2.96,2.35-.24,0-1.03-.23-3.22-2.39-3.87-3.82-7.31-7.26-10.54-10.54-2.97-3.01-2.91-3.07-.08-6,8.19-8.47,9.29-14.08,4.89-25.02-3.52-8.78-10.1-13.22-19.55-13.22h-.71c-2.93,0-3.86-.2-4.06-.32-.39-.59-.4-3.68-.4-4.69,0-1.71,0-3.43.02-5.15.02-3.38.04-6.88-.04-10.34-.05-2.18.38-2.93,3.05-3.08.7-.04,1.42-.06,2.13-.09,2.58-.08,5.25-.16,7.85-1.04,6.48-2.2,11.42-7.89,13.21-15.23,1.84-7.52.02-15.05-4.86-20.13-1.19-1.24-3.68-3.83-3.74-4.58.07-.74,2.54-3.21,3.72-4.39,2.86-2.86,5.72-5.72,8.59-8.57,2.54-2.52,3.41-2.9,3.71-2.9.23,0,1.04.27,3.48,2.79,4.32,4.46,9.16,6.72,14.39,6.72,2.94,0,6.07-.72,9.3-2.14,10.32-4.54,13.85-9.82,13.99-20.91q.05-4.23,4.11-4.28c2.6-.04,5.21-.06,7.82-.06s5.01.02,7.51.06c3.93.06,4.01.14,4.15,4.02.46,12.96,4.13,17.93,16.34,22.18,2.33.81,4.63,1.22,6.82,1.22,4.98,0,9.6-2.09,13.72-6.22,2.21-2.21,3.61-3.34,4.16-3.34s1.91,1.11,4.11,3.29c.9.9,1.81,1.79,2.71,2.69,2.36,2.33,4.81,4.75,7.11,7.18.65.68,1.23,1.58,1.91,2.63.02.03.04.06.06.09-.06.09-.12.19-.18.28-.75,1.16-1.4,2.16-2.14,2.8-9.6,8.41-9.77,19.74-.47,31.91,4.15,5.44,10.63,6.07,15.14,6.07h.71q4.77,0,4.8,5.15c.03,4.35.02,8.7,0,13.05-.01,3.53-.29,4.54-.53,4.78s-1.27.53-4.84.57c-7.04.08-13.73,3.58-17.92,9.35Z"/>
  <path class="cls-1" d="m363.69,147.9c-.24-10.06-7.63-17.28-17.97-17.56l-1.05-.03c-2.11-.06-4.3-.12-6.47-.12s-4.09.06-5.86.19c-.22.02-.43.02-.64.02-1.97,0-3.23-.57-4.28-3.57-1.35-3.87-2.64-7-4.04-9.82-1.15-2.33-.96-3.54.84-5.17,3.49-3.17,6.88-6.59,10.08-10.18,6.9-7.74,6.94-17.42.11-24.68-7.33-7.77-14.83-15.25-22.31-22.23-3.46-3.23-7.55-4.94-11.81-4.94-4.03,0-8.07,1.54-11.67,4.45-1.87,1.51-3.53,3.2-5.14,4.83-.6.61-1.2,1.22-1.81,1.81-.95.93-1.77,1.76-2.5,2.49-1.98,1.99-3.4,3.43-4.04,3.43-.86,0-2.81-.89-5.51-2.12l-1.94-.88c-2.24-1.01-4.14-1.75-5.96-2.33-2.17-.69-2.84-1.67-2.75-4,.18-4.81.11-9.64.01-13.73-.25-10.48-7.6-17.95-17.88-18.16-4.89-.1-9.91-.15-14.92-.15s-10.03.05-15.1.15c-10.37.2-17.77,7.64-17.98,18.1-.04,1.76,0,3.53.03,5.24.06,3.12.11,6.06-.22,8.95-.12,1.06-1.28,2.78-2.25,3.34-3.7,2.13-7.75,3.84-11.72,4.93-.1.03-.32.07-.68.07-1.23,0-2.62-.51-3.24-1-1.58-1.23-3-2.74-4.52-4.34-1.62-1.71-3.29-3.48-5.26-5.01-2.47-1.92-5.17-3.34-8.02-4.86-1.24-.65-2.51-1.33-3.79-2.06l-1.5-.85-1.49.86c-1.28.74-2.58,1.41-3.84,2.05-2.85,1.46-5.53,2.84-7.83,4.92-6.42,5.82-12.54,12.13-18.45,18.22l-1.59,1.64c-7.94,8.18-8.03,18.36-.22,26.57,3.17,3.33,6.48,6.61,9.68,9.78,1.62,1.61,3.25,3.22,4.86,4.84,2.44,2.45,4.76,3.64,7.12,3.64,2.07,0,3.97-.9,5.65-2.68,1.63-1.72,4.76-6.36-1.25-12.34l-2.23-2.22c-3.82-3.8-7.77-7.72-11.58-11.65-2.42-2.49-2.28-2.77-.1-5,5.9-6.01,12.04-12.16,18.79-18.79,1.59-1.56,2.28-1.73,2.51-1.73.25,0,1.01.19,2.83,1.94,1.37,1.33,2.72,2.68,4.06,4.04,1.92,1.93,3.91,3.94,5.96,5.84,3.61,3.35,7.69,5.05,12.12,5.05,2.42,0,4.94-.52,7.48-1.55,1.66-.67,3.3-1.39,4.89-2.09,2.41-1.06,4.68-2.06,7.04-2.91,8.43-3.02,12.78-9.21,12.92-18.41.06-4.29.07-8.72.02-13.17-.02-1.26.19-2.18.59-2.58.38-.39,1.26-.6,2.47-.6h.13c4.38.05,8.9.08,13.43.08s9.1-.03,13.74-.08h.12c1.23,0,2.12.21,2.5.6.39.39.59,1.3.57,2.55-.07,4.75-.12,9.42.04,14.17.29,8.11,4.4,14.01,11.89,17.05,4.62,1.88,8.48,3.45,12.43,5.15,2.71,1.16,5.38,1.75,7.95,1.75,4.53,0,8.74-1.8,12.51-5.35,1.9-1.78,3.74-3.65,5.53-5.45,1.37-1.38,2.73-2.76,4.13-4.11,1.81-1.75,2.57-1.94,2.82-1.94.22,0,.92.17,2.51,1.74,6.72,6.61,12.87,12.76,18.79,18.79,2.11,2.15,2.29,2.52-.11,5.01-1.56,1.62-3.2,3.25-4.78,4.82-1.57,1.56-3.19,3.16-4.76,4.79-5.81,6.03-7.1,13.25-3.75,20.87l.31.71c1.54,3.5,3.14,7.13,4.46,10.73,3.08,8.41,9.32,12.71,18.52,12.77,2.6.02,5.2.03,7.8.03,1.78,0,3.56,0,5.34-.03h.11c1.15,0,1.98.2,2.34.57.36.36.56,1.18.55,2.31-.07,10.65-.07,19.43,0,27.62.01,1.21-.19,2.09-.57,2.47-.36.36-1.17.56-2.31.56h-2.83c-1.4-.01-2.81-.02-4.21-.02-2.19,0-4.38.01-6.57.06-9.02.17-15.12,4.41-18.12,12.6-1.45,3.97-3.22,7.98-4.76,11.43-3.47,7.76-2.11,15.12,3.92,21.27,1.3,1.33,2.62,2.64,3.93,3.95,1.74,1.73,3.54,3.53,5.26,5.32,2.48,2.57,2.48,2.82,0,5.34-6.06,6.15-12.28,12.36-18.47,18.46-1.73,1.71-2.43,1.89-2.66,1.89s-.92-.18-2.66-1.87c-3.18-3.1-6.37-6.3-9.46-9.4-1.47-1.48-2.94-2.95-4.42-4.42-2.37-2.36-4.66-3.51-7.01-3.51-1.93,0-3.72.77-5.33,2.3-1.75,1.66-2.64,3.52-2.67,5.55-.04,3.16,2.06,5.63,3.64,7.21,1.34,1.34,2.67,2.68,4.01,4.03,3.34,3.36,6.79,6.83,10.25,10.19,4.27,4.14,8.85,6.23,13.63,6.23,4.79,0,9.37-2.1,13.63-6.25,1.94-1.89,3.85-3.86,5.7-5.75,2.94-3.02,5.98-6.14,9.13-8.96,7.31-6.53,10.74-12.28,10.8-18.1.06-5.91-3.21-11.61-10.59-18.48-.68-.63-1.3-1.21-1.88-1.74-2.39-2.21-4.29-3.95-4.48-4.73-.16-.62.77-2.64,1.84-4.99.42-.91.89-1.93,1.4-3.1.74-1.68,1.39-3.39,1.93-5.1.86-2.73,2.07-3.25,4.01-3.25.18,0,.36,0,.55.02,1.86.11,3.86.17,6.12.17,2.46,0,4.95-.06,7.35-.13h.34c10-.27,17.45-7.56,17.72-17.34.27-9.8.27-20.23.02-30.99Z"/>
  <path class="cls-1" d="m275.58,209.66c19.12-21.7,23.58-46.76,12.9-72.49-10.56-25.45-31.54-40.28-59.06-41.76h-.19c-20.35.19-35.97,5.91-49.15,18.01-2.76,2.53-4.17,5.14-4.19,7.76-.02,2.02.81,3.88,2.39,5.38,1.7,1.62,3.54,2.43,5.49,2.43,2.82,0,5.09-1.71,7.11-3.56,10.32-9.41,21.94-13.98,35.54-13.98,2.47,0,5.04.16,7.63.46,13.64,1.62,26.31,9.61,34.76,21.93,8.48,12.36,11.38,27.12,7.96,40.5-2.45,9.59-6.8,17.66-13.3,24.66-2.42,2.61-3.52,5.52-3.1,8.19.34,2.18,1.68,4.03,3.75,5.19,1.39.78,2.81,1.18,4.2,1.18,3.8,0,6.4-2.95,7.25-3.92Z"/>
  <path class="cls-1" d="m154.26,186.12h-.53c-26.43.3-47.19,21.3-47.25,47.8-.03,13.02,4.87,25.12,13.81,34.06,8.93,8.94,21.05,13.88,34.12,13.91h.07c27.61-.58,47.24-20.09,47.73-47.43.23-12.62-4.63-24.63-13.67-33.84-9.05-9.21-21.54-14.5-34.27-14.5Zm-.09,13.16h0v3c17.24,0,31.84,14.46,31.88,31.57.04,17.29-14.39,32-31.52,32.12h-.22c-8.48,0-16.52-3.37-22.62-9.48-6.05-6.06-9.38-14.01-9.37-22.37.02-17.21,14.57-31.79,31.77-31.83l.08-3Z"/>
</svg>