<?xml version="1.0" encoding="UTF-8"?>
<svg id="Capa_1" data-name="Capa 1" xmlns="http://www.w3.org/2000/svg" viewBox="0 0 440 440">
  <defs>
    <style>
      .cls-1 {
        fill: #5754c9;
        stroke-width: 0px;
      }
    </style>
  </defs>
  <path class="cls-1" d="m219.67,387.44c-2.61,0-5.23-.88-7.79-2.6-57.41-38.73-100.8-73.92-136.54-110.74-23.3-24-38.55-44.47-49.44-66.39-19.25-38.74-15.41-78.57,11.41-118.4,20-29.7,48.34-47.2,84.24-52,5.96-.8,11.91-1.2,17.68-1.2,28.54,0,54.52,9.77,77.19,29.03.8.68,1.5,1.18,2.08,1.49l1.4.74,1.4-.74c.61-.32,1.33-.84,2.23-1.59,22.48-18.93,49.53-28.93,78.22-28.93,55.02,0,102.71,36.27,118.66,90.24,2.23,7.54,3.5,15.42,4.73,23.04.56,3.47,1.14,7.07,1.8,10.59l.04.22v.23c-.32,17.65-5.55,34.55-16.96,54.8-18.1,32.1-43.54,57.96-63.68,76.9-32.63,30.68-70.86,60.68-116.9,91.73-2.29,1.54-5.79,3.59-9.78,3.59ZM132.71,57.96c-39.55,2.03-69.79,23.2-87.47,61.23-13.53,29.1-12.57,57.46,2.85,84.28,10.83,18.84,25.08,37.07,44.85,57.36,39.77,40.83,85.6,74.53,121.09,99.33,2.34,1.63,4.21,2.4,5.88,2.4s3.55-.76,5.99-2.46c43.55-30.34,77.19-57.08,105.87-84.18,24.63-23.27,41.56-42.97,54.9-63.88,16.24-25.47,20.98-48.45,14.92-72.34-10.09-39.77-33.52-65.63-69.62-76.87-10.95-3.41-21.75-5.14-32.1-5.14-24.89,0-47.8,9.89-68.1,29.38-4.28,4.1-7.93,6.84-11.88,6.84s-7.62-2.77-11.84-6.94c-19.73-19.5-43.61-28.71-75.16-29.01h-.09s-.09,0-.09,0Z"/>
  <path class="cls-1" d="m364.98,178.47c-5.12,0-8.53-4.28-8.91-11.16-1.04-18.79-8.54-34.04-22.31-45.31-4.63-3.79-10.3-6.59-15.7-9.13-10.72-5.04-8.76-10.4-8.02-12.42,1.37-3.75,4.29-5.82,8.23-5.82,1.92,0,4.05.49,6.34,1.44,27.01,11.3,43.3,31.88,48.42,61.16.38,2.18.59,4.42.77,6.23.07.76.14,1.47.21,2.09v.04c.07,3.63-.59,12.15-8.17,12.83-.28.03-.57.04-.85.04Z"/>
  <path class="cls-1" d="m282.98,104.54c-4.54,0-8.17-3.75-8.26-8.54-.1-5.12,3.35-8.9,8.21-9.01h.19c4.53,0,8.64,3.98,8.76,8.51.13,4.5-3.92,8.8-8.5,9.02-.14,0-.27,0-.41,0Z"/>
</svg>