<?xml version="1.0" encoding="UTF-8"?>
<svg id="Capa_1" data-name="Capa 1" xmlns="http://www.w3.org/2000/svg" viewBox="0 0 466 440">
  <defs>
    <style>
      .cls-1 {
        fill: #5754c9;
        stroke-width: 0px;
      }
    </style>
  </defs>
  <path class="cls-1" d="m366.3,43.82c8.23.97,18.09.94,27.21,3.53,10.87,3.09,16.49,12.23,17.05,23.25,2.31,45.38-4.23,89.25-23.99,130.62-12.52,26.21-30.21,48.62-50.87,68.82-4.83,4.72-10.13,8.97-14.87,13.77-1.62,1.64-2.92,4.25-3.12,6.53-1.36,15.27-2.41,30.56-3.52,45.85-.67,9.14-4.58,16.59-12.14,21.7-17.71,11.96-35.42,23.94-53.46,35.39-12.98,8.25-28.12.51-30.28-14.78-1.72-12.1-3.55-24.2-5.74-36.22-.29-1.61-3-4.02-4.51-3.96-10.78.39-18.69-4.48-25.96-11.93-17.99-18.44-36.29-36.58-54.62-54.69-6.6-6.52-10.52-13.96-10.02-23.36.19-3.65-1.31-5.19-4.94-5.69-12.29-1.72-24.55-3.65-36.8-5.61-14.05-2.25-21.42-17.9-13.71-29.86,11.58-17.96,23.5-35.71,35.45-53.42,5.22-7.74,12.76-11.76,22.12-12.43,15.29-1.09,30.59-2.12,45.85-3.53,2.39-.22,5.21-1.81,6.82-3.66,21.15-24.34,45.02-45.4,73.5-60.79,26.65-14.4,55.24-22.95,85.31-26.36,11.23-1.27,22.51-2.04,35.26-3.17Zm1.73,22.33c-9.61.68-20.75,1.05-31.79,2.34-40.36,4.7-77.35,18.07-109.4,43.68-27.86,22.27-50.97,48.57-67.78,80.18-1.53,2.88-3.21,5.33.13,8.64,31.89,31.65,63.64,63.46,95.35,95.29,2.31,2.31,4.24,2.73,7.17,1.15,39.88-21.58,72.42-51.19,96.22-89.8,22.9-37.14,31.31-78.5,31.06-121.53-.13-21.79,2.21-18.12-20.96-19.95Zm-134.7,243.01c-29.06-29.06-57.95-57.96-87.46-87.46-1.93,8.29-4.37,17-5.78,25.87-.42,2.67,1.25,6.54,3.26,8.6,18.52,18.92,37.3,37.58,56.1,56.22,1.47,1.46,3.62,3.11,5.47,3.14,10.31.16,19.8-3.37,28.41-6.37Zm6.44,63.46c2.67-1.62,4.38-2.58,6-3.65,10.06-6.65,20.21-13.15,30.12-20.02,17.82-12.36,15.97-6.63,17.28-29.29.27-4.78.63-9.55,1.03-15.52-2.86,1.62-4.36,2.58-5.94,3.36-13.9,6.86-27.54,14.32-41.8,20.34-12.4,5.23-12.81,4.52-11.01,17.7,1.18,8.63,2.73,17.21,4.32,27.08ZM82.91,215.53c2.59.62,4.11,1.09,5.67,1.33,9.74,1.48,19.56,2.6,29.21,4.5,4.32.85,5.49-.64,7.06-4.25,6.58-15.22,13.55-30.27,20.52-45.31,1.49-3.22,3.56-6.17,6.17-10.6-10.63.81-19.88,1.1-28.98,2.42-3.12.45-6.71,2.85-8.63,5.44-6.31,8.49-11.98,17.46-17.84,26.29-4.22,6.36-8.35,12.79-13.18,20.18Z"/>
  <path class="cls-1" d="m69.5,397.93c-3.47-2.82-7.25-4.66-9.09-7.68-2.69-4.41-1.42-9.23,2.29-13,7.42-7.53,14.92-14.99,22.4-22.47,12.38-12.38,24.73-24.77,37.16-37.1,2.19-2.17,4.47-4.37,7.08-5.96,4.41-2.69,8.79-1.93,12.57,1.51,3.72,3.39,4.54,8.56,1.9,12.97-1.29,2.16-3.02,4.12-4.8,5.92-19.83,19.88-39.65,39.77-59.64,59.49-2.43,2.4-5.86,3.79-9.87,6.31Z"/>
  <path class="cls-1" d="m115.92,289.54c-2.05,3.66-3.05,6.74-5.07,8.83-10.67,11-21.53,21.82-32.46,32.56-5.02,4.94-11.13,5.14-15.64.92-4.4-4.11-4.91-10.9-.3-15.71,10.98-11.45,22.24-22.65,33.62-33.71,3.35-3.25,8.11-4.4,12.13-1.72,3.03,2.03,5.01,5.63,7.72,8.84Z"/>
  <path class="cls-1" d="m177.38,350.91c-2.08,3.94-3.01,7.29-5.14,9.5-10.38,10.77-21,21.32-31.71,31.76-5.06,4.93-11.23,5.34-15.78,1.62-4.84-3.96-5.65-10.81-1.09-15.53,11.29-11.67,22.83-23.1,34.44-34.45,3.26-3.19,7.74-4.24,11.57-1.57,3,2.09,5.04,5.57,7.71,8.68Z"/>
  <path class="cls-1" d="m247.91,155.02c.09-28.31,23.84-51.81,52.34-51.8,28,0,52.33,24.47,52.06,52.34-.28,29.08-23.92,52.22-53.18,52.06-28.5-.16-51.31-23.59-51.22-52.6Zm51.97,30.39c16.44.04,30.21-13.45,30.23-29.61.02-16.51-13.81-30.36-30.31-30.36-16.17,0-29.7,13.76-29.67,30.17.03,16.93,12.84,29.76,29.75,29.8Z"/>
</svg>